<?xml version="1.0" encoding="utf-8" ?>
<svg baseProfile="tiny" height="480px" version="1.2" width="640px" xmlns="http://www.w3.org/2000/svg" xmlns:ev="http://www.w3.org/2001/xml-events" xmlns:xlink="http://www.w3.org/1999/xlink"><defs /><polyline fill="none" points="291.0,208.75 290.25,204.25 284.25,200.5 277.625,203.0 249.25,201.1875 244.25,205.875 249.0,214.625 251.4375,212.5625 248.25,213.25 244.25,205.875 249.1875,201.1875 273.875,203.75 283.125,201.25 289.875,204.875 290.875,209.375 286.4375,215.3125 282.0625,213.3125 277.3125,215.8125 264.6875,215.8125 254.25,213.0 257.625,216.375 256.125,218.75 253.25,217.25 256.375,219.0 261.5,215.0 276.375,216.375 276.375,218.625 271.3125,219.9375 260.25,218.0 272.875,219.8125 281.75,213.5 285.25,216.75 289,213" stroke="black" /><polyline fill="none" points="208.0,191.75 214.1875,210.0625 227.25,232.25 231.1875,259.0625 234.625,264.625 240.0,267.625 230.1875,256.0625 227.4375,232.4375 214.1875,209.0625 208,192" stroke="black" /><polyline fill="none" points="333.375,187.0 378.625,201.625 390.75,202.75 419.625,234.6875 424.875,244.4375 433.8125,283.5625 431.0,307.125 433.0,335.5 431.0,307.125 433.8125,283.5625 424.8125,244.0 419.875,234.0625 394.125,204.1875 378.625,201.625 334,187" stroke="black" /><polyline fill="none" points="337.0,141.375 334.375,143.3125 328.625,162.3125 321.1875,170.625 313.875,174.8125 301.25,175.8125 288.5,171.3125 281.0,163.625 272.625,143.0 281.0,164.625 288.3125,172.6875 287.625,175.375 284.375,178.0 278.3125,174.0625 266.0,176.0 255.875,173.25 250.375,176.0 247.1875,171.3125 250.0,176.375 247.375,179.0 244.0,173.875 246.0625,178.8125 251.875,182.6875 257.0,181.25 251.875,181.75 248.375,178.625 255.875,173.25 263.875,176.75 277.6875,174.0625 283.3125,179.6875 289.6875,173.0625 302.25,175.9375 313.875,174.8125 322.125,170.6875 328.875,162.9375 334.375,143.625 336.625,143.625 337,148" stroke="black" /><polyline fill="none" points="277.625,135.625 269.25,133.0 262.625,134.375 260.8125,141.1875 263.5625,138.25 262.75,135.25 268.3125,133.0625 272.75,136.75 276.1875,135.375 276.875,138.125 266.1875,139.3125 253.875,162.0625 249.0,166.625 239.5,169.8125 229.5,169.8125 220.375,166.0 210.1875,155.125 207.0,140.8125 207.1875,146.6875 211.0,157.625 219.375,166.0 229.5,169.8125 239.5,169.8125 248.3125,167.5625 253.5,163.5 266.25,140.75 276.8125,139.6875 278,137" stroke="black" /><polyline fill="none" points="205.625,130.375 203.125,135.8125 198.375,135.625 197.0,141.125 207.0,187.625 154.125,204.0625 124.5625,228.5 95.125,286.1875 85.375,324.125 84.0,339.75 85.1875,325.4375 93.125,292.1875 117.1875,240.875 124.75,229.3125 154.875,204.1875 206.875,187.9375 197.0,141.125 198.125,136.875 201.375,135.375 202.0,145.9375 202.375,136.625 206,132" stroke="black" /><polyline fill="none" points="286.875,133.125 280.625,143.375 278.0,143.375 283.8125,152.9375 284.4375,162.25 297.625,171.625 311.3125,171.8125 317.25,169.625 323.75,164.0625 328.8125,152.8125 324.625,133.6875 310.4375,129.0625 289,132" stroke="black" /><polyline fill="none" points="215.875,126.125 210.0625,138.4375 214.4375,156.25 227.625,165.625 246.25,163.625 253.25,156.75 257.8125,143.6875 257.8125,136.3125 254.8125,131.0 246.0625,125.1875 238.375,123.375 218,125" stroke="black" /><polyline fill="none" points="346.375,29.375 349.6875,35.625 357.375,38.0 366.25,35.75 365.625,29.625 357.75,26.1875 348.5,27.0 357.75,26.1875 365.875,30.875 365.875,35.125 359.375,38.0 351.0,35.8125 347,30" stroke="black" /><polyline fill="none" points="222.625,16.375 195.4375,19.1875 183.0625,23.125 176.25,28.9375 165.0,47.375 163.1875,67.125 173.1875,104.125 164.0625,72.3125 163.75,50.25 176.3125,29.875 184.0625,23.125 195.4375,19.1875 223,17" stroke="black" /><polyline fill="none" points="336.375,14.375 346.25,20.4375 362.75,23.125 384.875,33.875 386.375,47.375 395.625,61.125 394.6875,69.75 403.4375,85.5 403.8125,92.75 400.0,102.625 383.0625,123.875 357.1875,140.625 349.0,143.375 340.8125,173.0625 331.375,183.75 323.9375,203.875 306.25,234.4375 306.8125,243.875 302.0,255.625 306.8125,243.875 306.375,234.8125 321.9375,208.875 331.0,185.375 338.75,177.875 348.1875,145.25 384.875,123.125 399.8125,104.0 403.8125,92.75 403.8125,86.25 399.8125,75.9375 394.375,70.375 395.75,60.5 386.375,47.375 384.6875,33.0 362.8125,23.125 347.0,20.8125 339,16" stroke="black" /><polyline fill="none" points="222.375,13.375 230.875,11.0 257.5625,12.625 268.625,6.375 304.375,24.0 327.25,28.0 335.75,23.75 326.75,28.0 304.0625,22.8125 269.125,6.25 254.875,12.875 223,12" stroke="black" /><polyline fill="none" points="200,139 202,157 205,176 209,194 216,211 226,227 238,241 253,252 271,255 289,251 303,239 313,224 321,209 328,193 332,175 334,157 334,139" stroke="black" /><path d="M 213,126 L 223,118 L 236,117 L 248,119 L 260,125 Q 236.0,118 213,126" fill="none" stroke="black" /><polyline fill="none" points="213,126 223,118 236,117 248,119 260,125" stroke="black" /><path d="M 280,125 L 290,120 L 302,117 L 314,118 L 323,124 Q 301.8,118 280,125" fill="none" stroke="black" /><polyline fill="none" points="280,125 290,120 302,117 314,118 323,124" stroke="black" /><polyline fill="none" points="269,148 269,160 268,172 254,180 261,183 269,185 276,183 283,180" stroke="black" /><path d="M 221,138 C 224,136 227,134 231,132 C 235,132 240,132 245,132 C 249,135 253,138 257,141 C 253,141 249,142 245,143 C 240,143 235,143 231,144 C 227,142 224,140 221,138 " fill="none" stroke="black" /><polyline fill="none" points="240,139 238,141 236,139 238,137 240,139" stroke="black" /><polyline fill="none" points="227,139 234,135 243,135 251,141 243,142 234,143" stroke="black" /><polyline fill="none" points="240,139 238,141 236,139 238,137 240,139" stroke="black" /><path d="M 280,141 C 284,138 288,135 292,132 C 297,132 302,132 307,132 C 310,134 314,136 318,138 C 314,140 310,142 307,144 C 302,144 298,144 294,144 C 289,143 284,142 280,141 " fill="none" stroke="black" /><polyline fill="none" points="302,139 300,141 298,139 300,137 302,139" stroke="black" /><polyline fill="none" points="287,141 295,135 305,135 312,139 305,143 296,143" stroke="black" /><polyline fill="none" points="302,139 300,141 298,139 300,137 302,139" stroke="black" /><polyline fill="none" points="242,206 250,197 260,194 268,196 277,194 287,198 294,208 288,224 277,230 268,231 260,230 249,223 242,206" stroke="black" /><polyline fill="none" points="246,206 260,199 268,199 277,199 290,208 277,220 268,221 260,219 246,206" stroke="black" /><text fill="black" font-size="9" x="62.00000000000001" y="160">@long3dprinting</text><text fill="black" font-size="9" x="56.6" y="40">#uts_techfest2024</text></svg>