<?xml version="1.0" encoding="utf-8" ?>
<svg baseProfile="tiny" height="480px" version="1.2" width="640px" xmlns="http://www.w3.org/2000/svg" xmlns:ev="http://www.w3.org/2001/xml-events" xmlns:xlink="http://www.w3.org/1999/xlink"><defs /><polyline fill="none" points="153,231 151,233 148,239 148,241 148,239 150,236 151,237 151,239 154,233 151,237 150,235" stroke="black" /><polyline fill="none" points="39,227 44,232 44,233 47,236 47,237 48,238 49,241 49,239 48,238 48,237 46,235 46,234" stroke="black" /><polyline fill="none" points="37,225 36,226 36,227 44,236 44,237 46,239 46,241 46,239 45,238 45,237 42,234 42,233 36,227 36,226" stroke="black" /><polyline fill="none" points="161,222 151,221 138,227 133,233 141,225 145,223 148,224 139,229 133,236 144,226 151,223" stroke="black" /><polyline fill="none" points="27,213 28,213" stroke="black" /><polyline fill="none" points="18,207 18,209 20,210 22,209 23,210 23,212 32,222 31,221 32,219 33,220 32,218 31,218 30,216 29,218 27,216 28,215 26,215 25,213 23,212 24,210 21,208 22,209 20,210 18,208 19,207" stroke="black" /><polyline fill="none" points="12,204 13,204" stroke="black" /><polyline fill="none" points="9,204" stroke="black" /><polyline fill="none" points="15,205 16,205 17,204 17,203 15,203 16,203 17,204 16,205" stroke="black" /><polyline fill="none" points="13,202" stroke="black" /><polyline fill="none" points="9,202" stroke="black" /><polyline fill="none" points="186,199 187,200 186,201 187,200 186,199 184,199 183,200 184,201 183,202 183,203 180,206 181,206 182,205 182,204 183,203 183,202 184,201 184,200 185,199" stroke="black" /><polyline fill="none" points="68,190 75,193 70,190 71,189 78,191 80,193 85,194 90,193 87,192 81,193 78,191 79,190 83,191 73,187 74,188 73,189 69,188 71,189" stroke="black" /><polyline fill="none" points="1,152 0,152 1,153 0,154 1,153" stroke="black" /><polyline fill="none" points="0,146 1,146" stroke="black" /><polyline fill="none" points="0,135" stroke="black" /><polyline fill="none" points="6,131" stroke="black" /><polyline fill="none" points="11,128" stroke="black" /><polyline fill="none" points="116,126 116,128 115,129 115,136 114,137 114,141 113,142 113,148 113,142 114,141 114,137 115,136 115,129 116,128" stroke="black" /><polyline fill="none" points="51,122 52,123 52,124 54,126 54,127 60,133 60,132 54,126 54,125" stroke="black" /><polyline fill="none" points="49,122 51,127 51,130 52,131 53,137 58,147 53,137 52,131 51,130 51,127" stroke="black" /><polyline fill="none" points="24,116 23,117" stroke="black" /><polyline fill="none" points="25,114" stroke="black" /><polyline fill="none" points="31,113 28,113 27,112 28,111 27,111 27,112 30,114 22,121 20,121 20,122 23,121 27,117 28,117" stroke="black" /><polyline fill="none" points="31,110 30,110 30,111" stroke="black" /><polyline fill="none" points="87,102 85,102 83,104 82,104 82,105 78,109 76,109 74,111 73,111 75,111 77,109 79,109 81,107 85,107 82,107 81,106 83,104 84,104 86,102" stroke="black" /><polyline fill="none" points="59,95 58,95 57,96 58,95 59,96" stroke="black" /><polyline fill="none" points="54,94 56,93 60,93 61,94 62,93 63,94 75,94 76,93 89,94 85,94 84,93 76,93 75,94 55,93" stroke="black" /><polyline fill="none" points="53,87 60,82 76,82 87,88 76,82 59,82" stroke="black" /><polyline fill="none" points="85,70 84,70 81,76 74,76 68,80 66,80 63,78 63,79 68,80 69,79 71,79 75,76 81,76" stroke="black" /><polyline fill="none" points="99,67 101,67" stroke="black" /><polyline fill="none" points="148,64 148,65 147,66 147,67 145,69 138,69 138,70 139,69 143,69 144,70 145,69 146,69 147,68 147,66 148,65" stroke="black" /><polyline fill="none" points="69,65 70,65 71,64 74,64 76,66 77,66 78,67 78,66 79,65 80,66 81,66 78,64 79,65 78,66 77,66 75,64 71,64 70,65" stroke="black" /><polyline fill="none" points="40,65 41,64 42,64 40,64" stroke="black" /><polyline fill="none" points="66,59 68,59 69,60 70,60 71,61 73,61 74,62 75,62 74,61 72,61 71,60 69,60 68,59 68,58 67,59" stroke="black" /><polyline fill="none" points="153,49 116,123 177,212 174,195 189,199 186,241 189,199 117,122 155,62" stroke="black" /><polyline fill="none" points="109,46 108,46 107,47 106,46 105,47 104,47 102,49 100,49 99,50 93,50 92,49 93,50 99,50 100,49 102,49 105,47 107,47 108,46" stroke="black" /><polyline fill="none" points="99,43 100,43 101,42 103,42 104,43 103,44 102,44 105,43 104,43 103,42 104,41 108,41 109,42 112,42 109,42 108,41 103,41 102,42 100,42" stroke="black" /><polyline fill="none" points="50,63 51,65 58,53 68,54 58,53 62,44 68,41 77,53 76,56 74,53 71,54 79,58 84,63 83,68 84,66 69,41 62,43" stroke="black" /><polyline fill="none" points="15,35 37,107 27,103 0,133 9,127 3,145 23,124 8,129 26,106 40,109 30,120 40,110 27,60 54,55 33,60 20,37 27,60" stroke="black" /><polyline fill="none" points="125,33 125,34 126,35 129,35 130,36 129,37 130,36 132,36 133,37 132,38 133,38 133,36 131,36 130,35 127,35" stroke="black" /><polyline fill="none" points="20,33 20,35 21,35 22,36 20,34 21,33 22,33 23,34 22,33" stroke="black" /><polyline fill="none" points="116,32 116,33" stroke="black" /><polyline fill="none" points="24,32 25,33 26,33 28,35 28,36 29,37 29,40 29,39 31,37 30,38 28,35 29,34 30,34 31,35 31,33 30,34 28,34 27,33 25,33" stroke="black" /><polyline fill="none" points="25,28 25,29" stroke="black" /><polyline fill="none" points="23,27 23,29" stroke="black" /><polyline fill="none" points="95,24 123,31 117,50 109,29 92,27 108,29 116,40 113,56 102,65 81,56 78,40 79,54 86,62 105,66 115,58 123,32 128,32" stroke="black" /><polyline fill="none" points="17,22 20,22 21,23 20,24 17,24 21,24 21,22" stroke="black" /><polyline fill="none" points="173,17 173,20 174,21 174,25 173,26 173,30 173,26 174,25 174,21 173,20" stroke="black" /><polyline fill="none" points="177,13 177,20 176,21 176,23 176,21 177,20" stroke="black" /><polyline fill="none" points="0,7 4,18 10,24 10,27 14,33 14,31 11,28 14,25 14,23 12,23 11,27 10,26 10,23 4,17" stroke="black" /><polyline fill="none" points="177,0 180,18 174,33 164,37 158,46 153,46 157,47 156,50 161,41 165,41 163,39 167,40 173,34 166,45 158,50 161,54 157,62 161,50 172,39 178,26 180,14" stroke="black" /><polyline fill="none" points="173,0 173,1 174,2 174,3 173,4 173,5 173,4 174,3 175,4 175,5 175,4 174,3 174,2 173,1" stroke="black" /></svg>