<?xml version="1.0" encoding="utf-8" ?>
<svg baseProfile="tiny" height="480px" version="1.2" width="640px" xmlns="http://www.w3.org/2000/svg" xmlns:ev="http://www.w3.org/2001/xml-events" xmlns:xlink="http://www.w3.org/1999/xlink"><defs /><polyline fill="none" points="177,240 180,240" stroke="black" /><polyline fill="none" points="193,241 194,241 194,240 195,239 196,240 199,240 196,240 195,239 196,238 199,238 195,238 195,239" stroke="black" /><polyline fill="none" points="178,238 180,238" stroke="black" /><polyline fill="none" points="140,238 145,238" stroke="black" /><polyline fill="none" points="182,237 183,237 184,236 185,237 185,238 184,239 182,239 184,239 186,236 188,236 189,237 188,238 187,238 188,239 188,238 189,237 190,238 190,237 189,237 188,236 183,236" stroke="black" /><polyline fill="none" points="164,236 165,236" stroke="black" /><polyline fill="none" points="158,235 162,235" stroke="black" /><polyline fill="none" points="169,234 168,234 167,235 168,234" stroke="black" /><polyline fill="none" points="144,224 144,227 145,227 146,228 150,228 151,229 152,229 153,230 153,229 152,229 151,228 147,228 146,227 145,227 144,226" stroke="black" /><polyline fill="none" points="127,218 127,219" stroke="black" /><polyline fill="none" points="122,217 121,217 120,218 119,218 116,221 118,219 119,219 120,218 121,218" stroke="black" /><polyline fill="none" points="124,211 118,214 112,223 112,229 115,236 120,238 122,241 121,238 115,235 112,229 113,220 123,211 125,213 124,226" stroke="black" /><polyline fill="none" points="179,205 184,211 182,218 171,231 164,234 169,231 172,231 180,222 184,211" stroke="black" /><polyline fill="none" points="136,194 140,199 140,202 142,205 142,206 139,208 141,207 142,208 142,211 138,214 138,216 138,214 139,213 141,213 142,214 141,212 142,211 142,205 140,202 140,198" stroke="black" /><polyline fill="none" points="133,170 136,175 136,177 133,179 134,184 138,190 135,185 137,184 135,185 134,184 134,179 137,175 138,178 136,182 138,178 138,175 135,173 135,171 136,170 138,171 138,170 135,171" stroke="black" /><polyline fill="none" points="141,166 142,167 142,169 141,170 140,170 145,170 143,170 142,169 143,168 142,167 142,166" stroke="black" /><polyline fill="none" points="137,160 136,160 136,162 137,163 136,164 137,165 137,166 136,167 134,167 133,168 134,168 135,167 136,167 137,168 138,168 137,168 136,167 137,166 137,163 136,162 136,161" stroke="black" /><polyline fill="none" points="133,157 135,157 136,158 137,158 136,158 135,157" stroke="black" /><polyline fill="none" points="144,154 142,156" stroke="black" /><polyline fill="none" points="146,153 149,155 149,157 152,157 152,154 150,152 149,152 150,152 152,154 152,156 151,157 150,157 149,156 149,154 147,154" stroke="black" /><polyline fill="none" points="139,152 140,153 140,154 140,153" stroke="black" /><polyline fill="none" points="127,152 128,152" stroke="black" /><polyline fill="none" points="127,150 128,150" stroke="black" /><polyline fill="none" points="145,146 147,148 149,148 153,152 149,148 148,148 147,147 146,147" stroke="black" /><polyline fill="none" points="110,145" stroke="black" /><polyline fill="none" points="178,144 175,150 169,154 166,153 162,153 166,153 167,154 166,155 157,154 160,154 161,155 169,154 175,150" stroke="black" /><polyline fill="none" points="178,140 177,140 177,142 177,141" stroke="black" /><polyline fill="none" points="133,139 132,139 130,141 128,141 125,144 124,144 123,145 122,145 123,145 124,144 125,144 126,143 127,143 129,141 130,141 131,140 133,140" stroke="black" /><polyline fill="none" points="122,137 123,137" stroke="black" /><polyline fill="none" points="140,133 139,134" stroke="black" /><polyline fill="none" points="124,132 122,133 124,133 125,134 124,135 121,135 120,132 116,135 118,147 117,139 118,138 120,139 119,140 122,139 117,138 116,135 118,133 120,134 119,135 120,134 121,135 125,135" stroke="black" /><polyline fill="none" points="160,131 162,131 160,131 158,133 158,135 161,138 162,141 163,141 161,138 163,136 165,137 163,136 165,133 167,134 167,133 164,133 164,134 161,137 160,137 158,134 158,133" stroke="black" /><polyline fill="none" points="145,131 144,132 144,133 144,132" stroke="black" /><polyline fill="none" points="126,131 128,131 130,133 130,134 128,136 129,135 130,136 130,132 129,131" stroke="black" /><polyline fill="none" points="116,130 117,130" stroke="black" /><polyline fill="none" points="119,129 120,130 121,130 122,131 120,129" stroke="black" /><polyline fill="none" points="107,129 108,129" stroke="black" /><polyline fill="none" points="169,128 175,129 177,131 176,133 174,131 177,135 177,138 176,133 178,130 180,132 179,134 179,138 180,131 176,130 173,128" stroke="black" /><polyline fill="none" points="117,128" stroke="black" /><polyline fill="none" points="165,128 156,126 147,130 152,128 154,129 147,133 147,141 148,133 150,142 147,144 150,144 151,141 152,144 151,140 150,142 149,141 149,133 151,131 161,127" stroke="black" /><polyline fill="none" points="104,126 105,127 104,128 105,129 103,131 103,134 104,135 104,136 105,137 105,138 105,137 103,134 103,131 105,129 105,126" stroke="black" /><polyline fill="none" points="112,125 114,125" stroke="black" /><polyline fill="none" points="121,122 127,122" stroke="black" /><polyline fill="none" points="118,122" stroke="black" /><polyline fill="none" points="114,121 127,125 107,127 115,151 125,151 111,143 112,127 137,134 130,174 122,177 118,159 126,179 131,156 140,156 130,155 141,137 132,128 145,129" stroke="black" /><polyline fill="none" points="106,109 106,110 107,111 108,114 110,116 111,116 114,118 113,117 114,116 115,116 116,117 115,116 113,116 112,117 110,115 109,115 108,114 108,112" stroke="black" /><polyline fill="none" points="92,102 92,108 93,109 93,110 91,112 91,113 92,112 92,111 93,110 93,109 92,108" stroke="black" /><polyline fill="none" points="110,97 112,101 113,99 115,101 114,105 118,108 118,110 119,109 118,107 114,104 115,100 111,98 113,96 114,97 114,96 112,96 111,98" stroke="black" /><polyline fill="none" points="109,86 103,88 98,93 95,94 94,95 93,100 94,98 94,95 95,94 99,93 103,88 105,87 108,87" stroke="black" /><polyline fill="none" points="198,80 203,85 203,87 202,88 201,87 201,86 197,82 199,84 199,85 202,88 203,88 203,85 202,84 202,83 200,81 199,81" stroke="black" /><polyline fill="none" points="119,77 117,77 113,81 112,81 110,83 109,83 106,85 107,84 109,84 110,83 111,83 113,81 114,81 118,77" stroke="black" /><polyline fill="none" points="163,73 164,74 168,74 170,76 171,76 174,78 175,77 176,77 175,77 174,78 173,77 172,77 169,74 165,74 164,73" stroke="black" /><polyline fill="none" points="148,68 145,68 141,71 134,71 130,74 126,74 124,76 121,76 125,76 127,74 130,74 134,71 142,71 146,68" stroke="black" /><polyline fill="none" points="146,66 147,66 148,65 152,65 153,66 154,66 155,67 156,67 159,69 157,67 156,67 155,66 153,66 152,65 148,65 147,66" stroke="black" /><polyline fill="none" points="89,95 135,199 118,234 162,237 118,233 135,199 90,95 154,63 200,78 217,109 176,201 258,241 176,201 217,111 202,79 146,63" stroke="black" /></svg>