<?xml version="1.0" encoding="utf-8" ?>
<svg baseProfile="tiny" height="480px" version="1.2" width="640px" xmlns="http://www.w3.org/2000/svg" xmlns:ev="http://www.w3.org/2001/xml-events" xmlns:xlink="http://www.w3.org/1999/xlink"><defs /><polyline fill="none" points="170.0,198.0 148.25,213.0 162.0,205.8125 172,196" stroke="black" /><polyline fill="none" points="113.375,168.625 117.0625,173.875 128.5,176.9375 139.0625,174.3125 142.75,175.75 146.9375,172.125 140.875,170.25 140.0,171.75 140.9375,170.3125 143.0,172.375 140.9375,174.6875 137.25,170.1875 124.25,170.9375 116.0625,168.25 132.0625,171.75 137.375,170.375 136.3125,175.625 128.75,177.0 120.125,174.9375 114,170" stroke="black" /><polyline fill="none" points="202.625,118.375 189.875,166.5625 178.1875,190.0 181.625,196.625 205.5,212.5625 239.875,240.6875 210.25,215.4375 182.6875,196.625 178.0625,188.6875 192.1875,158.875 200.1875,155.6875 207.8125,144.9375 213.0,126.875 212.375,124.375 207.1875,123.125 208.75,119.0625 207,118" stroke="black" /><polyline fill="none" points="97.75,115.25 100.125,114.1875 102.375,119.375 107.4375,121.8125 116.6875,121.0 110.125,116.0 106.625,116.375 104.0,119.8125 101.0625,116.125 105.75,114.25 101.0625,114.8125 101.375,113.0 98,115" stroke="black" /><polyline fill="none" points="193.625,112.625 190.3125,115.0 190.875,118.125 181.9375,124.75 176.375,123.375 182.375,120.8125 181.75,119.25 164.3125,115.0625 146.3125,114.5625 131.6875,119.875 121.75,116.8125 107.0625,107.6875 94.5,105.25 102.375,106.375 101.625,107.8125 87.25,106.25 93.6875,109.0625 87.75,131.5 83.75,125.9375 83.375,114.25 83.1875,151.5625 87.1875,166.625 99.25,191.75 73.0,201.375 53.375,225.5 46.5,240.25 55.9375,222.5 73.375,201.9375 79.0,198.25 100.25,191.5 110.125,204.0 118.75,207.75 110.875,203.8125 99.0625,189.5 85.5,161.375 83.25,142.8125 85.0,136.25 94.1875,141.875 87.75,139.625 86.875,142.75 112.0625,142.8125 109.375,142.375 117.5,133.625 119.375,121.625 116.375,116.375 108.3125,110.5625 118.625,120.125 118.6875,130.9375 108.25,142.0 94.25,141.125 88.0,132.5 94.25,108.75 109.375,108.3125 120.5,117.875 122.75,127.5625 116.0,139.75 123.375,123.625 131.75,123.75 136.5,141.0 143.625,150.375 141.75,155.625 147.4375,151.75 135.375,138.1875 132.625,123.625 126.3125,120.5625 126.375,122.625 122.625,122.625 122.6875,117.625 133.75,120.0 146.375,115.375 139.0,120.625 136.4375,125.8125 140.8125,132.375 139.375,141.375 152.375,152.0 150.5,153.0 160.5,154.0 152.375,152.625 169.875,150.9375 176.625,142.25 181.75,127.375 193.25,122.0 196.0,128.6875 193.875,122.0 182.75,126.375 185.6875,121.75 192.375,118.0 192,115" stroke="black" /><polyline fill="none" points="94.375,103.0 98.375,99.0 106.625,98.875 116.375,91.0 128.75,97.0 120.75,94.625 111.375,87.375 105.125,87.1875 99.375,91.0 108.75,87.0 115.25,91.75 108.0625,92.0 112.6875,92.9375 106.375,98.625 97.5625,98.6875 95,102" stroke="black" /><polyline fill="none" points="187.0,102.625 180.375,107.625 175.0,108.0 161.375,102.0 164.625,100.0 173.625,105.0 172.375,101.625 178.75,101.0 177.375,99.625 182.9375,95.4375 182.625,100.0 183.25,95.0 171.25,102.0 165.625,100.625 165.875,98.3125 160.625,102.0 147.25,99.25 146.0,97.375 153.625,90.375 158.625,79.375 160.625,82.625 157.0,86.375 158.75,90.125 155.0,94.8125 151.25,95.25 157.875,92.9375 157.375,86.625 160.75,83.125 159.625,78.375 153.625,89.25 146.3125,96.5625 123.5625,99.0 145.125,97.25 146.9375,99.8125 159.125,101.25 161.75,103.125 158.8125,104.0 171.3125,107.8125 180.625,109.0 184,106" stroke="black" /><polyline fill="none" points="90,120 87,132 86,146 87,160 90,173 96,184 102,194 111,205 124,209 140,208 156,202 169,194 181,182 188,169 192,154 196,140 198,124" stroke="black" /><polyline fill="none" points="94,105 97,100 103,98 111,99 118,103" stroke="black" /><polyline fill="none" points="144,103 154,99 164,99 173,102 181,109" stroke="black" /><polyline fill="none" points="127,129 124,138 122,147 112,151 117,154 123,157 130,155 138,155" stroke="black" /><polyline fill="none" points="100,118 106,114 114,115 120,122 113,122 106,122 100,118" stroke="black" /><polyline fill="none" points="113,118 109,122 105,118 109,114 113,118" stroke="black" /><polyline fill="none" points="146,123 153,118 161,118 166,123 161,126 153,126 146,123" stroke="black" /><polyline fill="none" points="160,122 156,126 152,122 156,118 160,122" stroke="black" /><polyline fill="none" points="107,167 111,163 118,163 124,165 132,164 143,167 153,172 143,184 131,187 123,187 116,185 110,180 107,167" stroke="black" /><polyline fill="none" points="110,168 118,168 124,170 131,170 150,172 131,178 124,178 117,176 110,168" stroke="black" /></svg>