<?xml version="1.0" encoding="utf-8" ?>
<svg baseProfile="tiny" height="480px" version="1.2" width="640px" xmlns="http://www.w3.org/2000/svg" xmlns:ev="http://www.w3.org/2001/xml-events" xmlns:xlink="http://www.w3.org/1999/xlink"><defs /><polyline fill="none" points="278.0,201.375 283.0,208.75 280.0,220.0 283.0,236.75 280.0,220.0 283.25,210.75 295.625,226.625 280,203" stroke="black" /><polyline fill="none" points="30.625,172.375 19.0625,188.75 10.375,193.625 2.5,194.0 10.375,193.625 20.0,188.8125 31,173" stroke="black" /><polyline fill="none" points="164.25,139.0 144.0625,140.1875 152.125,140.25 151.375,143.0 154.625,143.0 153.375,140.625 158.125,139.25 159.375,144.0 163,139" stroke="black" /><polyline fill="none" points="135.375,139.625 142.625,146.625 147.6875,147.0 143.625,146.625 147.0,145.0 139.375,142.1875 139.625,138.375 143.75,138.0 136,139" stroke="black" /><polyline fill="none" points="218.75,112.125 235.375,155.0625 243.6875,164.5 258.25,172.25 268.625,187.75 268.875,193.125 256.6875,201.5625 239.3125,178.5 198.375,161.0 190.25,150.5 183.0625,148.0 189.125,150.125 196.25,160.25 195.3125,162.6875 197.3125,163.8125 193.375,166.625 200.5,165.0 196.625,162.5 197.625,161.0 228.75,173.125 241.375,181.375 252.625,195.6875 256.0,203.875 249.0,213.75 243.0,239.25 245.375,223.625 252.4375,213.75 250.0,215.625 249.125,214.0625 257.875,202.125 270.375,193.0 274.25,200.75 254.375,210.625 256.75,211.0 255.375,210.0625 258.375,208.125 262.75,209.0 262.25,206.75 271.9375,202.375 271.5,205.5 274.625,201.625 273.0625,224.125 274.375,233.375 277.625,238.0 275.5,239.0 278.875,240.25 289.5625,240.8125 302.1875,235.625 311.3125,224.75 318.375,210.125 309.625,226.3125 301.25,235.5625 293.625,239.875 280.625,240.625 283.25,239.0 275.375,234.875 273.0625,224.125 275.75,199.875 258.625,171.625 245.375,165.0 236.0,155.625 228.1875,139.9375 219,111" stroke="black" /><polyline fill="none" points="222.375,111.625 224.375,120.25 230.625,127.0 228.25,127.25 232.625,129.625 240.6875,129.8125 250.75,124.75 253.1875,113.375 257.5,110.0 261.125,111.125 271.75,124.125 271.375,132.0 273.9375,127.1875 278.75,129.0 272.375,126.375 272.75,123.0625 266.5625,118.5 260.0625,107.1875 253.625,107.375 257.125,106.25 260.9375,108.875 254.625,110.375 251.375,115.375 247.375,103.625 252.0,105.625 256.125,103.25 251.375,105.0 242.75,101.0 247.625,102.625 246.25,104.1875 250.625,109.0 252.0,118.5 247.125,126.8125 245.25,125.875 250.0,117.5 244.125,125.6875 235.75,128.0 241.375,129.625 230.625,128.625 231.75,126.8125 226.25,122.0625 222,113" stroke="black" /><polyline fill="none" points="49.0,102.375 61.625,107.75 68.0,115.1875 67.625,111.625 63.0,108.1875 50.3125,103.0625 58.5625,101.0625 66.125,104.1875 70.0,114.75 66.8125,104.0625 59.625,101.1875 50,102" stroke="black" /><polyline fill="none" points="286.25,103.0 283.625,103.625 281.75,99.25 272.25,103.0 276.875,105.75 280.4375,104.8125 281.875,101.25 283.3125,104.6875 285,103" stroke="black" /><polyline fill="none" points="304.875,96.0 299.3125,96.9375 299.6875,93.3125 292.625,94.0 297.9375,95.125 294.25,96.25 297.8125,98.5625 297.125,110.75 292.5,97.5 278.375,94.375 285.0,93.0 266.0625,98.125 260.625,104.75 269.625,97.625 263.0,108.5 268.9375,99.25 280.625,95.0625 290.125,96.3125 295.9375,105.875 294.0,114.625 286.0625,121.8125 278.125,122.8125 269.25,118.25 265.125,108.3125 269.6875,118.625 283.625,123.625 279.3125,125.0 291.0625,121.75 296.8125,114.0 298.75,98.25 305.0,96.1875 308.0,101.6875 306,97" stroke="black" /><polyline fill="none" points="5.0,90.375 10.0,85.1875 22.25,84.0 35.75,90.75 34.9375,95.875 20.0,87.25 18.625,89.0 12.6875,88.0 25.0625,90.1875 34.375,96.0 36.875,92.1875 39.0,93.6875 30.9375,87.125 22.625,84.1875 10.5,85.0625 7,88" stroke="black" /><polyline fill="none" points="162.75,62.75 166.375,70.0 172.875,69.0 177.75,72.0 172.375,67.375 166.625,69.625 167.9375,64.1875 166.6875,62.3125 164,64" stroke="black" /><polyline fill="none" points="157.0,56.375 164.5625,59.9375 169.3125,59.375 186.8125,78.375 186.9375,125.9375 181.875,143.75 176.1875,152.0625 177.6875,158.0625 175.0,171.75 177.375,158.625 179.0,158.625 176.125,153.4375 181.8125,144.625 186.9375,125.9375 186.8125,78.375 175.75,64.75 171.375,63.375 170.375,59.375 165.3125,59.9375 158,57" stroke="black" /><polyline fill="none" points="1.375,75.0 17.375,58.0 22.1875,63.6875 31.875,62.9375 38.625,59.0 44.9375,65.75 43.0625,63.125 45.875,62.1875 39.75,59.125 34.25,59.0 35.5625,60.3125 31.625,63.0 23.625,62.875 15.0,55.5 14.625,60.3125 3,73" stroke="black" /><polyline fill="none" points="158.5,53.0 137.0625,62.375 124.8125,63.375 115.25,70.5 106.25,94.125 113.9375,132.6875 121.125,150.0 120.8125,154.75 111.125,166.125 88.6875,175.5 77.25,184.3125 69.875,199.5 64.375,204.0 64.75,214.25 38.875,175.75 37.625,167.5 55.0625,146.8125 65.75,140.25 74.5,128.875 75.5625,124.4375 72.625,118.75 78.0,93.25 75.375,82.3125 73.125,79.5625 78.0,93.0 71.3125,122.125 75.375,123.6875 74.5,128.6875 65.125,139.875 53.5,147.375 34.0,169.125 66.0,218.1875 71.75,233.25 65.25,213.75 82.25,234.4375 81.3125,240.625 82.25,233.5625 65.6875,212.125 64.625,204.875 67.5625,202.375 71.25,203.875 91.3125,226.9375 96.75,229.4375 96.1875,200.5625 98.75,194.8125 103.875,199.0625 108.25,229.5625 114.0,238.875 101.625,195.1875 98.625,194.4375 96.5625,196.9375 96.75,218.125 94.1875,228.4375 69.9375,201.3125 75.75,186.875 84.25,178.875 111.75,166.125 119.8125,158.0625 116.0,170.75 117.5,173.375 116.375,169.625 122.0,167.25 127.25,159.75 121.25,165.9375 127.0,156.25 125.5,153.5625 126.125,156.5625 119.25,168.75 117.1875,169.0 123.0,152.125 114.1875,133.375 106.625,90.125 115.25,71.125 125.75,62.625 138.75,62.25 157.125,53.0 163,55" stroke="black" /><polyline fill="none" points="210.125,51.875 199.3125,65.0625 201.0,68.375 199.25,72.875 200.1875,85.4375 202.3125,97.6875 215.75,108.9375 201.5,94.8125 199.25,73.125 201.0,63.375 213,50" stroke="black" /><polyline fill="none" points="224.625,47.0 219.1875,49.875 219.375,55.625 209.25,62.25 208.25,67.75 216.0625,58.125 220.625,60.375 217.375,58.375 219.9375,55.625 218.625,52.125 224,47" stroke="black" /><polyline fill="none" points="11.5,45.5 0.375,59.0 16.75,41.625 30.5,36.0 44.875,37.375 53.375,42.0 53.0625,39.1875 59.8125,40.1875 82.5,56.5 90.8125,70.5 92.0,82.625 89.0,84.75 91.4375,91.25 89.5625,93.25 86.0,80.5625 83.75,83.875 81.0,82.625 87.625,74.375 84.625,77.125 82.4375,76.3125 85.0,65.125 81.125,59.125 68.0,52.8125 57.5625,44.5625 50.0,42.3125 47.3125,44.9375 48.0,41.25 45.375,44.0 41.75,40.25 39.25,40.0625 42.5625,42.6875 41.125,43.9375 32.0,41.375 49.0,45.1875 46.125,47.75 41.25,47.0 46.375,49.0 49.0625,47.1875 54.0,51.75 54.25,48.75 57.9375,48.25 49.9375,47.8125 53.75,46.0 49.625,44.375 60.875,46.25 67.75,56.75 68.375,53.0 74.375,55.6875 70.1875,56.3125 69.3125,58.6875 76.8125,57.1875 84.0,63.375 84.75,69.125 82.0,76.375 83.625,79.9375 81.0625,84.375 87.0,88.125 87.75,93.125 76.0,114.6875 86.75,94.25 91.625,91.375 89.0,85.625 92.4375,82.6875 90.625,69.625 83.625,56.6875 56.9375,39.1875 30.5,36.0 19,40" stroke="black" /><polyline fill="none" points="261.625,31.375 226.875,42.375 216.625,47.375 215.0,52.4375 217.6875,47.375 227.25,42.125 234.6875,41.0625 236.9375,43.75 237.875,39.375 262,32" stroke="black" /><polyline fill="none" points="-3,92 -6,102 -9,114 -10,125 -10,136 -8,147 -4,158 2,166 11,170 21,171 30,167 39,162 47,155 53,148 60,140 65,132 70,123" stroke="black" /><polyline fill="none" points="6,87 14,84 23,85 32,88 38,94" stroke="black" /><polyline fill="none" points="52,99 60,101 66,104 70,109 70,116" stroke="black" /><polyline fill="none" points="40,112 38,119 36,126 23,127 27,130 31,133 35,133 39,133" stroke="black" /><polyline fill="none" points="13,97 19,96 24,98 28,103 22,102 17,101 13,97" stroke="black" /><polyline fill="none" points="24,99 20,103 16,99 20,95 24,99" stroke="black" /><polyline fill="none" points="47,112 53,111 58,113 60,118 56,117 51,115 47,112" stroke="black" /><polyline fill="none" points="58,114 54,118 50,114 54,110 58,114" stroke="black" /><polyline fill="none" points="7,138 16,138 23,140 27,142 31,142 35,145 38,148 31,151 26,151 21,150 17,148 12,144 7,138" stroke="black" /><polyline fill="none" points="9,139 21,144 25,145 30,146 36,148 28,145 24,145 20,143 9,139" stroke="black" /><polyline fill="none" points="115,119 115,127 116,134 117,142 121,149 126,155 134,160 142,164 151,165 160,164 167,160 174,155 180,148 183,140 184,131 184,123 183,114" stroke="black" /><polyline fill="none" points="119,111 123,106 130,105 136,106 142,108" stroke="black" /><polyline fill="none" points="153,107 159,104 166,102 173,103 178,107" stroke="black" /><polyline fill="none" points="149,117 149,122 150,127 142,132 146,132 150,133 154,132 158,131" stroke="black" /><polyline fill="none" points="127,116 131,115 134,114 138,116 134,116 131,116 127,116" stroke="black" /><polyline fill="none" points="136,115 132,119 128,115 132,111 136,115" stroke="black" /><polyline fill="none" points="159,114 163,113 167,112 171,113 167,114 163,114 159,114" stroke="black" /><polyline fill="none" points="169,113 165,117 161,113 165,109 169,113" stroke="black" /><polyline fill="none" points="134,141 140,138 145,137 150,138 154,137 160,138 167,140 161,146 155,149 150,149 145,149 139,146 134,141" stroke="black" /><polyline fill="none" points="136,141 146,140 150,140 155,140 165,141 155,144 150,145 145,144 136,141" stroke="black" /><polyline fill="none" points="225,112 226,121 227,132 229,142 233,152 239,160 247,167 257,171 270,171 282,168 292,162 302,154 308,144 310,133 311,122 311,110 310,98" stroke="black" /><polyline fill="none" points="227,104 229,98 234,95 241,94 248,95" stroke="black" /><polyline fill="none" points="264,92 271,87 279,85 287,86 293,91" stroke="black" /><polyline fill="none" points="257,110 256,115 256,121 252,131 255,131 260,132 264,130 269,128" stroke="black" /><polyline fill="none" points="235,111 239,109 243,108 249,109 244,111 239,112 235,111" stroke="black" /><polyline fill="none" points="245,110 241,114 237,110 241,106 245,110" stroke="black" /><polyline fill="none" points="270,105 274,102 279,101 284,102 280,105 275,106 270,105" stroke="black" /><polyline fill="none" points="281,103 277,107 273,103 277,99 281,103" stroke="black" /><polyline fill="none" points="250,148 253,143 258,140 262,140 266,138 273,140 281,142 275,147 269,149 264,150 260,150 255,150 250,148" stroke="black" /><polyline fill="none" points="252,147 258,144 262,144 267,143 279,142 267,144 263,145 259,145 252,147" stroke="black" /></svg>