<?xml version="1.0" encoding="utf-8" ?>
<svg baseProfile="tiny" height="480px" version="1.2" width="640px" xmlns="http://www.w3.org/2000/svg" xmlns:ev="http://www.w3.org/2001/xml-events" xmlns:xlink="http://www.w3.org/1999/xlink"><defs /><polyline fill="none" points="244,241" stroke="black" /><polyline fill="none" points="160,241" stroke="black" /><polyline fill="none" points="214,238 214,241 215,240 214,239" stroke="black" /><polyline fill="none" points="152,238 151,239 150,239 149,240 148,240 147,241 145,241 147,241 148,240 149,240 150,239 152,239" stroke="black" /><polyline fill="none" points="245,237 246,238 246,241 246,238 245,237 243,239 242,239 241,238 242,239 242,241 242,240 243,239 244,239 244,238" stroke="black" /><polyline fill="none" points="124,239 128,239 129,238 133,238 134,237 147,237 134,237 133,238" stroke="black" /><polyline fill="none" points="222,230 221,231 221,235 220,236 220,237 219,238 220,237 220,236 221,235 221,232 222,231" stroke="black" /><polyline fill="none" points="129,230 135,230 138,233 139,233 138,233 135,230" stroke="black" /><polyline fill="none" points="42,230 43,230 44,231 46,231 47,232 50,232 51,233 53,233 54,234 57,234 58,235 61,235 58,235 57,234 54,234 53,233 51,233 50,232 48,232 47,231" stroke="black" /><polyline fill="none" points="32,228 34,230 43,234 46,234 57,238 66,239 62,239 54,236 43,234 34,230" stroke="black" /><polyline fill="none" points="130,224 129,225 127,225 125,227 123,227 122,228 120,228 119,229 118,229 114,233 115,233 119,229 120,229 121,228 123,228 124,227 126,227 128,225 129,225" stroke="black" /><polyline fill="none" points="116,218 114,220 113,220 112,221 111,221 109,223 108,223 109,223 110,222 111,222 112,221 113,221" stroke="black" /><polyline fill="none" points="15,218 14,219 13,219 8,224 7,224 1,230 0,230 0,231 1,230 2,230 8,224 9,224" stroke="black" /><polyline fill="none" points="307,216 309,216 310,217 315,217 310,217 309,216" stroke="black" /><polyline fill="none" points="37,216 36,217 35,216 34,216 34,217 33,218 33,222 33,219 34,218 34,217 35,216 36,217 37,217" stroke="black" /><polyline fill="none" points="39,215 39,216" stroke="black" /><polyline fill="none" points="242,214 237,217 236,216 237,217 235,220 234,219 235,220 235,222 233,224 231,228 231,230 229,233 230,233 230,231 233,225 235,223 235,221 237,217" stroke="black" /><polyline fill="none" points="36,214 37,214" stroke="black" /><polyline fill="none" points="250,211 249,212 247,212 241,218 241,221 241,219 248,212 249,212" stroke="black" /><polyline fill="none" points="118,211 117,212 117,214 117,213 119,211 120,212 120,214 120,211" stroke="black" /><polyline fill="none" points="39,210 38,211 37,210 34,213 34,214 34,213 35,212 36,212 36,211 37,210 38,211 38,212 38,211" stroke="black" /><polyline fill="none" points="268,208 267,209 266,209 266,210 265,211 264,210 264,209 264,210 265,211 265,212 263,214 263,215 264,214 264,213 266,211 266,210" stroke="black" /><polyline fill="none" points="297,204 298,205 301,205 302,204 304,205 310,205 311,204 307,202 299,202 307,202 310,204 309,205 304,205 303,204 301,205 298,205" stroke="black" /><polyline fill="none" points="218,200 219,201 219,202 221,204 221,205 223,207 223,209 224,210 224,211 227,214 227,213 224,210 223,207 221,205 220,202" stroke="black" /><polyline fill="none" points="104,185 103,186 102,186 99,189 98,189 97,190 96,190 95,191 94,191 96,191 97,190 98,190 99,189 100,189" stroke="black" /><polyline fill="none" points="52,183 52,185 53,186 53,188 56,191 58,191 57,191 53,187 53,186 52,185" stroke="black" /><polyline fill="none" points="314,181 315,182 316,182 317,183 318,183 319,184 317,182 315,182" stroke="black" /><polyline fill="none" points="288,179 288,180 290,182 291,182 292,183 293,183 294,184 295,184 294,183 293,183 292,182 291,182" stroke="black" /><polyline fill="none" points="106,178 106,179 100,184 98,184 96,186 89,189 91,188 93,188 97,186 99,184 101,184 105,180 106,180" stroke="black" /><polyline fill="none" points="278,166 281,166 282,167 284,167 283,167 282,166" stroke="black" /><polyline fill="none" points="310,151 312,153 314,159 316,160 314,162 314,164 313,166 314,164 314,162 316,160 317,161 319,160 317,161 314,158 312,153" stroke="black" /><polyline fill="none" points="319,150 319,152" stroke="black" /><polyline fill="none" points="229,154 236,148 230,152 229,156 236,157 242,160 250,159 251,160 249,161 253,162 253,160 252,161 251,159 242,160 236,157 231,157" stroke="black" /><polyline fill="none" points="219,152 219,156 222,159 234,159 249,164 247,162 241,162 234,159 222,159 219,156 219,153 225,147 240,146 225,147" stroke="black" /><polyline fill="none" points="133,146" stroke="black" /><polyline fill="none" points="316,145 316,146 315,147 317,147 318,148 319,148 318,148 316,146 317,145 319,145" stroke="black" /><polyline fill="none" points="301,146 219,168 233,214 219,210 217,189 202,241 206,225 211,241 229,215 286,193 234,213 219,189 228,168 268,158 288,191 319,189 288,191 271,161 305,160" stroke="black" /><polyline fill="none" points="200,142 199,143" stroke="black" /><polyline fill="none" points="47,146 53,142 66,143 78,147 81,151 80,148 82,145 79,145 81,146 80,148 71,144 58,143 58,140 67,141 54,140 56,140 56,142 50,143" stroke="black" /><polyline fill="none" points="252,140 227,137 217,138 200,150 196,155 215,140 225,143 239,142 246,145 251,145" stroke="black" /><polyline fill="none" points="212,136 213,135 220,135 212,135" stroke="black" /><polyline fill="none" points="47,142 51,140 55,135 57,135 58,136 64,136 71,142 77,144 75,144 65,136 58,136 57,135 53,136" stroke="black" /><polyline fill="none" points="207,133 203,137 203,138 201,140 203,138 203,137" stroke="black" /><polyline fill="none" points="317,131 314,131 313,132 309,132 308,133 306,133 305,134 305,136 307,136 308,135 313,135 314,134 315,134 313,135 308,135 307,136 305,135 309,132" stroke="black" /><polyline fill="none" points="298,130 299,131 299,136 300,137 300,142 299,143 301,143 300,142 300,137 299,136 299,130" stroke="black" /><polyline fill="none" points="241,130 242,131" stroke="black" /><polyline fill="none" points="269,129 269,132 272,132 270,132 269,131 269,130 270,129 271,129" stroke="black" /><polyline fill="none" points="208,131 210,129 213,130 231,129 235,130 239,133 235,130 238,129 239,130 238,129 235,130 231,129 213,130 210,129" stroke="black" /><polyline fill="none" points="59,130 60,131 60,134 63,134 65,133 66,131 75,131 78,129 80,131 82,136 82,133 79,129 77,129 74,131 70,131 69,129 68,131 66,131 62,134 60,133 60,130" stroke="black" /><polyline fill="none" points="90,128 93,128" stroke="black" /><polyline fill="none" points="84,128 86,128" stroke="black" /><polyline fill="none" points="199,140 212,125 233,125 243,128 244,133 241,135 223,135 242,135 244,128 233,125 212,125 206,127" stroke="black" /><polyline fill="none" points="281,124 281,125 280,126 275,126 274,127 274,132 275,133 276,133 277,134 278,133 279,134 281,132 281,127 280,126 281,125" stroke="black" /><polyline fill="none" points="77,124 77,126 75,128 74,127 74,125 73,124 74,125 74,127 75,128 77,126" stroke="black" /><polyline fill="none" points="305,123 306,124 313,124 306,124" stroke="black" /><polyline fill="none" points="126,122" stroke="black" /><polyline fill="none" points="65,122 65,124 66,124 69,127 70,126 71,126 71,124 69,122" stroke="black" /><polyline fill="none" points="55,122 55,124 56,125 59,125 59,123 58,122" stroke="black" /><polyline fill="none" points="308,121 309,122 311,122 309,122" stroke="black" /><polyline fill="none" points="292,121 292,125" stroke="black" /><polyline fill="none" points="200,121 201,121" stroke="black" /><polyline fill="none" points="219,120 215,120 214,121 212,121 211,122 210,122 207,125 209,123 210,123 211,122 212,122 215,120" stroke="black" /><polyline fill="none" points="288,119 288,121 289,122 289,126 288,127 285,127 285,130 288,130 288,128 289,127 289,122 288,121" stroke="black" /><polyline fill="none" points="121,117 121,119 124,121 123,122 127,127 126,130 127,142 129,142 131,144 136,143 137,141 134,144 127,141 126,138 127,127" stroke="black" /><polyline fill="none" points="70,117 71,118 71,117" stroke="black" /><polyline fill="none" points="211,116 210,116 208,118 207,118 206,119 204,119 203,120 204,119 206,119 207,118 208,118 210,116" stroke="black" /><polyline fill="none" points="319,124 317,124 311,117 309,117 309,115 295,127 295,129 298,128 295,128 298,125 309,128 298,125 304,120 306,121 305,119 307,117 310,117 316,124" stroke="black" /><polyline fill="none" points="267,116 267,117 266,118 266,121 267,122 267,123 273,123 273,122 274,121 274,117 272,115 269,115 268,116" stroke="black" /><polyline fill="none" points="142,115 144,115" stroke="black" /><polyline fill="none" points="101,115 100,116 97,116 96,117 95,117 97,117 98,116 100,116" stroke="black" /><polyline fill="none" points="279,114 278,115 278,120 279,121 285,121 286,120 286,115 285,114" stroke="black" /><polyline fill="none" points="64,113 63,114 64,115 64,117 66,119 67,119 64,116 64,114 65,113 66,113" stroke="black" /><polyline fill="none" points="127,112 130,115 130,117 131,118 130,117 130,116 131,115 128,112" stroke="black" /><polyline fill="none" points="284,110 289,111 291,113 291,115 294,116 294,123 294,121 296,119 299,119 300,117 302,117 300,116 302,114 307,114 302,114 301,113 302,114 300,116 299,114 294,115 292,111" stroke="black" /><polyline fill="none" points="83,110 84,111 84,112 89,117 91,117 90,117 87,114 88,113 90,113 88,113 87,112 86,113 84,111 84,110" stroke="black" /><polyline fill="none" points="76,110 76,114" stroke="black" /><polyline fill="none" points="38,110 39,111 39,112 39,111" stroke="black" /><polyline fill="none" points="41,110 44,110 45,109 46,110 46,111 47,112 47,114 48,115 48,118 48,115 47,114 47,112 46,111 46,108 43,110" stroke="black" /><polyline fill="none" points="32,108 32,110 33,111 33,113 34,114 34,115 34,114 33,113 33,111 32,110" stroke="black" /><polyline fill="none" points="96,105 97,106 98,106 100,108 101,108 100,108 97,105" stroke="black" /><polyline fill="none" points="144,104 143,107 146,108 145,110 144,109 145,110 145,113 145,110 146,109 147,110 147,114 148,115 148,120 147,122 149,123 149,125 149,122 147,121 148,120 148,115 146,109 147,107 145,107" stroke="black" /><polyline fill="none" points="83,108 85,108 84,107 84,106 86,104 93,104 94,105 94,104 85,104 84,105 84,107" stroke="black" /><polyline fill="none" points="33,104 33,105" stroke="black" /><polyline fill="none" points="290,103 296,104 297,105 308,106 314,109 319,114 315,109 311,107" stroke="black" /><polyline fill="none" points="276,109 279,107 290,109 282,107 288,104 278,108 276,106 279,103 288,101 315,103 319,106 315,103 288,101 277,104" stroke="black" /><polyline fill="none" points="113,101 112,102 111,102 110,103 111,104 112,104 111,104 110,103 111,102 112,102" stroke="black" /><polyline fill="none" points="140,100 139,100 138,101 139,101" stroke="black" /><polyline fill="none" points="80,100 77,102 74,106 74,109 74,106 75,105 78,109 78,111 79,112 79,116 78,117 77,116 78,118 79,116 79,112 77,107 75,105" stroke="black" /><polyline fill="none" points="82,99 83,99" stroke="black" /><polyline fill="none" points="78,122 81,127 93,126 103,116 96,127 106,115 127,117 115,112 107,115 110,106 123,112 113,106 105,115 103,103 108,102 99,98 102,112 87,106 103,112 101,119 93,126" stroke="black" /><polyline fill="none" points="307,97 309,97 310,98 310,99 315,99 316,98 317,98 318,99 319,99 318,98 316,98 315,99 314,98 313,99 311,99 309,97" stroke="black" /><polyline fill="none" points="97,97" stroke="black" /><polyline fill="none" points="49,93 47,93 48,93 49,94 49,96 48,97 48,101 47,102 47,104 47,102 48,101 48,97 49,96" stroke="black" /><polyline fill="none" points="262,90 261,90 260,91 261,90 262,91" stroke="black" /><polyline fill="none" points="303,88 306,88 307,89 310,89 311,90 312,90 312,89 311,90 310,89 307,89 306,88" stroke="black" /><polyline fill="none" points="126,87 128,87 129,88 128,89 127,89 129,89 129,88 128,87" stroke="black" /><polyline fill="none" points="143,85 141,94 140,95 138,94 138,96 141,95 142,93 143,94 143,97 139,98 141,97 144,100 142,102 144,100 145,101 147,100 145,101 143,99 143,94 145,91 144,91 143,94 142,93 142,87 143,86 144,88" stroke="black" /><polyline fill="none" points="72,87 79,91 85,92 86,90 91,93 94,91 96,94 105,98 99,93 97,94 95,91 80,91 80,89 84,89 85,87 82,84 82,87 84,88 83,89 78,88 80,89 77,90" stroke="black" /><polyline fill="none" points="38,84 39,85 38,86 40,84 41,84 42,85 40,87 40,88 41,87 42,88 41,87 41,86 42,85 44,87 43,86 43,85 42,85 41,84" stroke="black" /><polyline fill="none" points="55,83 57,94 35,101 50,180 29,217 38,229 29,218 42,205 41,217 50,180 38,121 52,120 36,114 37,96 56,94 50,102 63,102 49,105 63,106 51,115 69,106 76,122 62,99 95,98 64,99" stroke="black" /><polyline fill="none" points="313,84 314,84 315,85 316,85 315,85 314,84 315,83 317,83 318,84 319,83 318,84 316,82 315,83 314,82 315,83 314,84" stroke="black" /><polyline fill="none" points="44,82" stroke="black" /><polyline fill="none" points="39,82" stroke="black" /><polyline fill="none" points="319,81" stroke="black" /><polyline fill="none" points="60,86 61,86 62,85 65,85 66,84 66,82 65,81 61,81 61,83 60,84" stroke="black" /><polyline fill="none" points="35,81 35,83 36,83 35,82" stroke="black" /><polyline fill="none" points="301,80 303,80 306,82 302,86 303,85 305,86 304,85 305,84 309,86 311,85 319,90 317,88 319,86 317,88 313,87 311,85 309,86 306,84 309,83 309,81" stroke="black" /><polyline fill="none" points="270,80 268,81 267,80 264,83 264,84 262,86 258,88 254,92 253,94 259,88 260,88 263,85 264,85 264,84 267,81 269,81" stroke="black" /><polyline fill="none" points="46,80 46,81" stroke="black" /><polyline fill="none" points="141,79 140,80 139,80 139,83 138,84 138,86 137,87 138,87 139,88 138,87 138,84 139,83 139,81 140,80 141,80" stroke="black" /><polyline fill="none" points="122,79 123,79" stroke="black" /><polyline fill="none" points="311,78 311,79 312,80 311,81 312,82 312,81 313,80 314,80 314,79 313,80 312,80 311,79" stroke="black" /><polyline fill="none" points="137,78 137,80 136,81 136,83 135,84 135,86 134,87 135,88 134,89 134,92 135,91 136,92 137,92 136,91 137,90 137,89 135,91 134,90 134,89 135,88 135,84 136,83" stroke="black" /><polyline fill="none" points="35,78" stroke="black" /><polyline fill="none" points="140,75 140,76 141,77 141,76" stroke="black" /><polyline fill="none" points="138,75 138,76" stroke="black" /><polyline fill="none" points="109,78 116,84 119,82 123,83 122,85 119,85 126,84 122,82 123,81 120,82 117,79 119,78 116,79 119,82 117,84 111,79 113,77 115,77 117,75 116,74 111,79" stroke="black" /><polyline fill="none" points="51,74 48,74 47,75 46,75 46,77 46,76 48,74" stroke="black" /><polyline fill="none" points="311,73 312,73 315,75 315,76 314,77 315,77 316,78 319,78 316,78 315,77 315,76 316,75 317,76 319,76 318,76 317,75 315,75 314,74" stroke="black" /><polyline fill="none" points="314,70 315,71 315,72 315,71" stroke="black" /><polyline fill="none" points="118,70 119,70 120,71 122,71 120,71 119,70" stroke="black" /><polyline fill="none" points="291,69 288,69 287,70 286,70 285,71 282,71 281,72 280,72 281,72 282,71 285,71 286,70 288,70 289,69" stroke="black" /><polyline fill="none" points="44,69" stroke="black" /><polyline fill="none" points="129,68 130,70 126,75 125,79 132,89 130,85 131,84 133,85 132,84 136,76 135,72 137,71 135,71 136,74 135,79 130,85 126,80 132,73 132,70" stroke="black" /><polyline fill="none" points="35,68 35,70 36,71 37,70 38,71 37,70 36,70 35,69 36,68 39,68" stroke="black" /><polyline fill="none" points="123,68 124,69 123,68 124,67 125,67 127,69 126,68 127,67 124,67" stroke="black" /><polyline fill="none" points="305,66 306,66" stroke="black" /><polyline fill="none" points="297,69 296,72 298,72 300,70 304,72 305,71 307,73 302,74 305,74 306,75 304,76 307,77 312,76 309,76 306,71 304,72 302,70 303,68 305,69 306,68 301,68 300,66 300,68 302,70 301,71 300,70 298,72" stroke="black" /><polyline fill="none" points="65,69 63,67 65,65 64,66 59,66 59,67 60,68 59,67 60,66 62,66 63,67 63,68 64,68" stroke="black" /><polyline fill="none" points="319,70 305,63 282,68 257,80 247,104 252,112 247,100 257,81 282,68 305,63" stroke="black" /><polyline fill="none" points="121,61 121,63 120,64 121,63" stroke="black" /><polyline fill="none" points="46,57" stroke="black" /><polyline fill="none" points="123,77 112,70 114,66 118,68 114,66 119,60 114,61 112,56 114,58 108,63 117,62 109,75 101,72 107,68 110,71 111,64 105,70 98,66 103,69 101,72 87,65 83,67 88,66 106,75 117,72" stroke="black" /><polyline fill="none" points="107,65 103,65 107,60 103,63 99,60 99,57 104,55 103,53 96,54 90,61 86,59 90,62 89,63 85,62 94,65 89,63 97,56 99,58 95,63 99,64 95,62 98,59 103,63 103,66" stroke="black" /><polyline fill="none" points="84,52 77,57 78,53 53,56 46,68 50,72 54,70 51,68 50,72 48,67 56,66 55,62 57,60 59,63 64,56 59,62 54,59 65,53 68,57 73,57 73,54 77,57 71,61 65,59 72,63 73,59 76,60" stroke="black" /><polyline fill="none" points="90,51 84,54 80,60 79,59 79,63 80,63 81,65 82,65 80,63 84,60 84,59 80,63 79,61 83,57 85,57 83,56 86,53" stroke="black" /><polyline fill="none" points="63,50 61,50 60,51 57,51 58,52 57,53 57,54 56,55 55,55 57,55 58,54 57,53 59,51 60,51 61,50" stroke="black" /><polyline fill="none" points="44,54 33,101 45,54 95,49 151,110 144,141 121,87 147,130 109,178 128,220 58,225 170,241 197,121 269,99 197,120 157,238 107,202 150,133 141,69" stroke="black" /></svg>