<?xml version="1.0" encoding="utf-8" ?>
<svg baseProfile="tiny" height="480px" version="1.2" width="640px" xmlns="http://www.w3.org/2000/svg" xmlns:ev="http://www.w3.org/2001/xml-events" xmlns:xlink="http://www.w3.org/1999/xlink"><defs /><polyline fill="none" points="154,234 157,235 163,234 168,236 169,238 169,237 171,236 174,239 175,238 176,240 177,239 180,239 181,240 175,238 174,239 171,236 167,236 164,234 161,234 160,235" stroke="black" /><polyline fill="none" points="282,231 282,232 281,233 282,232 283,233 283,234 284,235 284,237 285,238 286,241 286,240 287,239 288,240 288,241 288,240 287,239 286,240 285,239 285,238 284,237 284,235 283,234" stroke="black" /><polyline fill="none" points="270,217 270,218 271,219 271,220 272,221 272,222 271,223 272,224 272,226 273,226 272,225 272,220 271,219 271,218" stroke="black" /><polyline fill="none" points="207,217 208,218 210,218 210,217 209,218 208,218" stroke="black" /><polyline fill="none" points="267,215 268,216" stroke="black" /><polyline fill="none" points="135,214 143,223 151,227 154,230 155,230 150,226 144,223" stroke="black" /><polyline fill="none" points="264,213 265,214" stroke="black" /><polyline fill="none" points="212,212 211,213 211,214 211,213" stroke="black" /><polyline fill="none" points="208,211 208,215" stroke="black" /><polyline fill="none" points="251,210 252,210 253,209 254,210 256,210 257,211 258,211 260,213 260,214 261,215 260,216 260,218 261,217 260,216 261,215 261,214 260,213 261,212 260,212 259,211 257,211 254,209" stroke="black" /><polyline fill="none" points="257,207 278,220 279,223 275,225 277,224 279,227 278,236 279,223 292,241 275,216" stroke="black" /><polyline fill="none" points="251,206 254,206 255,207 255,206" stroke="black" /><polyline fill="none" points="245,206" stroke="black" /><polyline fill="none" points="226,205 226,208 226,205 227,204 229,204 230,205 229,206 232,204 233,205 231,209 232,210 235,210 235,209 238,207 239,204 238,205 237,204 238,206 235,208 234,210 231,209 233,206 233,204 229,204 228,202" stroke="black" /><polyline fill="none" points="212,202 212,210 213,210 212,209" stroke="black" /><polyline fill="none" points="225,200 225,203" stroke="black" /><polyline fill="none" points="222,198 220,211 217,212 218,211 219,214 217,217 216,215 215,217 216,221 212,227 211,226 212,227 211,229 216,221 220,211 222,212 220,211 223,201" stroke="black" /><polyline fill="none" points="212,196 212,198" stroke="black" /><polyline fill="none" points="211,188 212,189 212,190 213,191 213,194 213,191 212,190 212,189" stroke="black" /><polyline fill="none" points="141,188 140,188 139,189 140,188" stroke="black" /><polyline fill="none" points="148,187 149,189 154,192 163,201 169,204 176,205 173,205 164,201 155,192" stroke="black" /><polyline fill="none" points="208,184 189,197 204,186 209,189 209,203 205,188 206,215 189,233 192,236 181,237 192,238 195,231 200,232 206,215 206,195 209,209" stroke="black" /><polyline fill="none" points="135,183 121,191 75,202 58,210 34,241 49,219 62,208 122,191" stroke="black" /><polyline fill="none" points="161,182 161,183 162,182 163,182 164,181 165,181 166,182 167,182 168,183 167,182 166,182 165,181 164,181 163,182 162,181" stroke="black" /><polyline fill="none" points="185,165 182,165 179,168 167,168 179,168 182,165" stroke="black" /><polyline fill="none" points="162,165 169,165 164,165 163,164" stroke="black" /><polyline fill="none" points="173,161 173,160 172,159 168,159 167,160 162,160 167,160 168,159 172,159 173,160 172,161" stroke="black" /><polyline fill="none" points="145,158 146,155 154,159 178,155 192,159 197,157 199,153 195,155 198,154 197,157 192,159 178,155 155,159 146,155 146,153" stroke="black" /><polyline fill="none" points="202,154 201,152 201,159 197,161 177,163 149,161 149,159 148,161 168,163 201,160" stroke="black" /><polyline fill="none" points="163,142 164,142 165,141 166,141 164,141" stroke="black" /><polyline fill="none" points="220,140 221,141 221,144 222,145 222,146 221,147 221,150 222,151 221,152 221,153 221,152 222,151 221,150 221,147 222,146 222,145 221,144 221,140" stroke="black" /><polyline fill="none" points="199,140 201,140" stroke="black" /><polyline fill="none" points="155,140 155,141 159,145 164,145 164,144 163,145 160,145 157,142 158,141 158,140 158,141 157,142" stroke="black" /><polyline fill="none" points="143,139 146,139" stroke="black" /><polyline fill="none" points="192,138" stroke="black" /><polyline fill="none" points="173,140 173,141 175,139 176,140 178,140 179,141 181,141 181,139 180,138 176,138 174,140" stroke="black" /><polyline fill="none" points="165,139 164,139 163,138 162,139 160,139 160,140 161,141 160,140 161,139 162,139 163,138 164,139" stroke="black" /><polyline fill="none" points="227,137 227,140 226,141 226,146 225,147 225,148 226,147 226,141 227,140" stroke="black" /><polyline fill="none" points="125,128 129,163 143,183 130,187 134,187 131,203 137,213 133,195 138,186 132,204 131,192 137,184 145,186 137,194 143,219 137,195 146,187 129,163" stroke="black" /><polyline fill="none" points="182,126 191,136 190,137 191,136 196,137 197,138 195,139 197,138 203,138 197,138 192,136 189,134" stroke="black" /><polyline fill="none" points="174,127 171,126 173,127 174,129 173,130 170,129 166,133 165,132 166,128 165,129 165,132 166,133 164,135 161,136 165,135 165,134 171,129 173,130 174,129" stroke="black" /><polyline fill="none" points="162,122" stroke="black" /><polyline fill="none" points="180,120 180,121" stroke="black" /><polyline fill="none" points="160,120 160,121" stroke="black" /><polyline fill="none" points="140,117 141,117 144,119 152,119 157,116 154,117 152,119 144,119 143,118 142,118 140,116" stroke="black" /><polyline fill="none" points="250,115 250,117" stroke="black" /><polyline fill="none" points="235,114 235,115 236,116 236,117 235,118 235,120 235,118 236,117 237,118 237,120 237,118 238,117 237,117 236,116 237,115 236,115" stroke="black" /><polyline fill="none" points="131,114 131,117 130,118 129,117 129,115 129,119 130,118 131,119 131,120" stroke="black" /><polyline fill="none" points="169,113 161,130 154,137 161,131 167,116 172,113 188,142 182,146 167,143 182,146 190,142 193,145 187,141 187,135 181,129 176,116" stroke="black" /><polyline fill="none" points="267,112 267,113" stroke="black" /><polyline fill="none" points="243,112 240,112 239,113 239,115 239,113 240,112" stroke="black" /><polyline fill="none" points="161,112 160,112 159,113 158,113 157,114 158,114 159,113 160,113" stroke="black" /><polyline fill="none" points="265,111 238,131 264,112 265,118 261,122 260,118 260,123 237,140 230,137 242,123 237,127 236,122 236,131 230,135 233,143 229,140 228,147 233,139 237,141 261,123" stroke="black" /><polyline fill="none" points="245,111 245,113" stroke="black" /><polyline fill="none" points="232,115 233,114 233,113 235,111 236,112 237,112 238,111 237,112 236,112 235,111 234,112 233,111 233,113 232,114" stroke="black" /><polyline fill="none" points="169,111 167,111 166,112 166,113 168,111" stroke="black" /><polyline fill="none" points="257,110 255,111 254,110 252,111 249,111 248,114 245,117 244,116 242,117 241,116 242,114 240,117 242,118 242,117 244,116 245,117 244,119 248,115 250,111 253,111 254,110 255,112 255,111" stroke="black" /><polyline fill="none" points="174,110 174,111 175,111 176,112" stroke="black" /><polyline fill="none" points="171,110" stroke="black" /><polyline fill="none" points="180,109 179,110 178,110 178,112 179,113 178,112 178,111" stroke="black" /><polyline fill="none" points="248,108 248,109 247,110 247,111 247,110 248,109" stroke="black" /><polyline fill="none" points="192,110 194,114 196,114 197,115 198,114 200,114 200,113 202,111 205,111 206,112 208,112 210,113 210,110 207,110 204,108 193,108" stroke="black" /><polyline fill="none" points="137,112 141,113 146,111 148,114 153,114 156,110 160,109 158,107 155,108 148,107 141,110 138,110 141,110 145,108 146,110 141,113" stroke="black" /><polyline fill="none" points="122,107 121,110 120,111 119,110 120,111 120,112 124,119 124,118 122,116 122,115 120,112 120,111 122,108 123,109 123,111 123,108" stroke="black" /><polyline fill="none" points="246,107 245,106 245,108 243,110 242,110 243,110 244,109 245,109 245,108" stroke="black" /><polyline fill="none" points="193,106 191,106 190,107 189,107 186,110 186,112 187,113 189,113 190,112 190,110 189,111 190,112 189,113 187,113 186,112 186,111 191,106" stroke="black" /><polyline fill="none" points="192,103 190,103 182,109 181,116 179,118 181,116 182,117 185,127 181,113 182,110 190,103" stroke="black" /><polyline fill="none" points="192,101" stroke="black" /><polyline fill="none" points="261,100 260,100 259,101 259,103 258,104 257,104 256,105 256,107 255,108 254,108 257,108 256,107 256,106 258,104 259,104 259,101 260,100" stroke="black" /><polyline fill="none" points="196,100 197,100 198,99 202,99 198,99 197,100" stroke="black" /><polyline fill="none" points="125,126 148,137 141,136 154,135 161,124 149,135 135,132 126,119 133,101 153,101 139,107 156,103 163,119 154,100 166,108 188,102 166,108 153,99 129,99" stroke="black" /><polyline fill="none" points="119,101 120,100 122,100 123,99 125,99 126,100 125,101 124,101 125,101 126,102 126,103 125,104 123,104 122,103 122,102 122,104 126,104 126,99 122,99" stroke="black" /><polyline fill="none" points="147,98 148,98" stroke="black" /><polyline fill="none" points="136,98 141,98" stroke="black" /><polyline fill="none" points="143,97" stroke="black" /><polyline fill="none" points="264,96 264,104 263,105 263,106 262,107 261,107 259,109 260,109 262,107 263,107 263,105 264,104" stroke="black" /><polyline fill="none" points="223,97 215,102 214,95 213,101 194,102 212,103 220,113 217,128 208,136 219,129 205,139 213,136 221,124 226,105 218,103 219,98 229,107 224,117 228,115 228,135 229,107" stroke="black" /><polyline fill="none" points="196,96 197,96 198,95 210,95 198,95 197,96" stroke="black" /><polyline fill="none" points="135,93 136,92 135,93 136,96 137,96 138,95 143,95 144,94 145,94 146,95 149,95 150,96 149,95 146,95 145,94 144,94 143,95 138,95 137,96" stroke="black" /><polyline fill="none" points="252,91 250,92 251,92 255,96 255,97 253,98 253,104 250,108 251,108 253,103 254,102 255,103 253,101 253,99 255,98 255,96 252,92" stroke="black" /><polyline fill="none" points="259,89 260,90" stroke="black" /><polyline fill="none" points="137,89 136,89 135,90 134,89 133,90 132,90 132,91 133,92 131,95 131,97 131,95 133,93 133,92 132,91 134,89 135,90 136,89 138,91 138,92 139,92 140,93 137,90" stroke="black" /><polyline fill="none" points="165,87 167,89 167,88 166,88" stroke="black" /><polyline fill="none" points="130,85 129,86 129,95 128,96 128,97 128,96 129,95 129,87 130,86" stroke="black" /><polyline fill="none" points="163,83 162,84" stroke="black" /><polyline fill="none" points="137,80 137,81 138,80 139,81 139,82 139,80" stroke="black" /><polyline fill="none" points="241,76 241,77 242,78 243,78 245,80 245,79 244,78 242,78 241,77" stroke="black" /><polyline fill="none" points="198,88 190,87 196,78 183,91 172,91 171,88 180,84 172,76 166,84 157,87 155,94 147,93 157,96 164,85 174,83 172,85 170,81 174,77 178,84 170,88 171,91" stroke="black" /><polyline fill="none" points="164,76 158,83 157,83 150,89 149,89 151,89 155,85 159,83 163,78 164,80 163,78" stroke="black" /><polyline fill="none" points="242,74 243,75 243,76 245,76 246,77 245,76 244,76" stroke="black" /><polyline fill="none" points="106,71 101,86 122,120 123,127 123,122 112,103 116,102 105,90 112,98 112,102 102,89 102,78 107,71 110,71" stroke="black" /><polyline fill="none" points="258,66 258,69 257,70 258,71 258,72" stroke="black" /><polyline fill="none" points="139,68 140,68 141,67 142,67 143,68 144,68 145,69 143,71 144,71 144,70 145,69 145,68 144,68 142,66 141,67 140,67" stroke="black" /><polyline fill="none" points="260,65 260,76 254,71 252,72 251,68 253,75 250,85 254,90 254,88 261,86 265,89 262,91 262,95 256,92 258,91 255,92 260,95 257,99 265,90 260,77" stroke="black" /><polyline fill="none" points="113,63 108,69 113,64 114,65 113,71 106,75 105,77 108,80 107,81 108,88 107,87 108,84 110,83 108,84 107,81 108,80 110,81 105,77 113,72 114,69" stroke="black" /><polyline fill="none" points="256,62 256,64 258,64 259,63 258,62" stroke="black" /><polyline fill="none" points="118,58 117,59 116,59 115,60 113,60 112,61 113,60 116,60 117,59 118,59" stroke="black" /><polyline fill="none" points="241,60 245,59 246,60 241,62 244,61 247,63 245,61 249,60 250,64 249,57 251,56 253,59 252,61 254,69 256,67 253,66 252,56 249,55 248,61 246,59" stroke="black" /><polyline fill="none" points="253,53 253,54 255,56 255,57 256,57 253,54" stroke="black" /><polyline fill="none" points="137,42 138,42" stroke="black" /><polyline fill="none" points="144,41 140,41 142,43 139,45 138,45 135,43 133,43 133,44 134,43 135,43 137,45 136,46 137,46 138,45 140,45 141,44 142,44 142,43 141,42 142,41" stroke="black" /><polyline fill="none" points="241,40 244,40 246,42 245,43 244,43 247,43 245,41 245,40" stroke="black" /><polyline fill="none" points="232,40 233,40" stroke="black" /><polyline fill="none" points="147,36 145,36 144,37 141,37 144,37 145,36" stroke="black" /><polyline fill="none" points="143,39 135,39 127,43 122,50 120,48 125,40 120,48 117,40 123,36 117,39 115,53 108,59 108,64 108,60 116,53 117,42 120,50 126,46 126,51 128,43" stroke="black" /><polyline fill="none" points="235,34 233,36 234,36 235,37 234,38 235,37 237,39 238,39 239,40 239,41 239,39 237,39 234,36 235,35" stroke="black" /><polyline fill="none" points="242,30 251,48 236,46 251,48 263,64 269,114 224,157 210,183 248,212 242,206 251,204 210,183 269,115 263,64" stroke="black" /><polyline fill="none" points="180,31 180,33 180,31 179,30 178,31 177,31 176,30 175,31 173,31 172,32 169,32 173,32 174,31 175,32 177,32 179,30" stroke="black" /><polyline fill="none" points="157,31 159,31 160,30 168,30 159,30 158,31 157,30" stroke="black" /><polyline fill="none" points="234,27 230,27 229,28 224,28 229,28 230,27 231,27 232,28 227,32 229,30 232,29 232,28 233,27" stroke="black" /><polyline fill="none" points="220,28 222,29 220,31 222,32 222,34 224,33 225,34 224,36 225,35 226,36 227,41 230,44 231,42 234,43 235,41 237,41 229,42 228,41 229,39 226,36 229,33 232,33 229,33 226,36 225,33 223,34 221,31 222,27" stroke="black" /><polyline fill="none" points="196,27 197,28 199,28 197,28" stroke="black" /><polyline fill="none" points="219,26 216,30 197,24 155,28 135,37 151,29 155,30 151,33 155,28 179,26 183,29 184,26 190,31 196,24 212,29 212,32" stroke="black" /><polyline fill="none" points="224,22 225,24 226,21 231,21 235,24 237,27 234,29 234,30 237,32 234,30 238,27 240,31 239,27 238,27 232,21 226,21" stroke="black" /><polyline fill="none" points="223,20 222,21 220,21 219,22 218,22 218,24 220,24 221,25 220,24 219,24 218,23 220,21 222,21" stroke="black" /></svg>