<?xml version="1.0" encoding="utf-8" ?>
<svg baseProfile="tiny" height="480px" version="1.2" width="640px" xmlns="http://www.w3.org/2000/svg" xmlns:ev="http://www.w3.org/2001/xml-events" xmlns:xlink="http://www.w3.org/1999/xlink"><defs /><polyline fill="none" points="102,228 135,233 146,240 144,237 122,233" stroke="black" /><polyline fill="none" points="221,218 211,228 206,232 212,227 219,221" stroke="black" /><polyline fill="none" points="255,216 250,216 245,222 242,226 245,224 248,220 251,216" stroke="black" /><polyline fill="none" points="170,200 189,217 201,230 219,217 221,203 221,211 212,224 207,228 189,217 174,201" stroke="black" /><polyline fill="none" points="189,176 195,176 207,177 212,182 191,179 196,179 208,177 203,177" stroke="black" /><polyline fill="none" points="97,167" stroke="black" /><polyline fill="none" points="224,136 236,143" stroke="black" /><polyline fill="none" points="168,127 168,132 176,147 176,136 204,138 197,134 178,147 182,152 195,155 185,157 177,150 181,155 195,157 204,150 208,145 200,153 203,146 214,158 212,152 212,158 239,163 238,151 219,142 200,134" stroke="black" /><polyline fill="none" points="166,127 164,145 165,152 168,173 172,195 158,190 129,149 126,145 107,139 102,161 94,176 91,179 87,182 89,206 90,212 99,228 96,224 90,207 89,201 90,190 91,179 94,167 98,163 109,161 107,133 112,117 116,120 129,149 139,160 162,195 172,187 168,165 165,146 164,130" stroke="black" /><polyline fill="none" points="259,103 265,104" stroke="black" /><polyline fill="none" points="162,93" stroke="black" /><polyline fill="none" points="194,84 191,92 194,87" stroke="black" /><polyline fill="none" points="166,84" stroke="black" /><polyline fill="none" points="213,78 208,78 192,81" stroke="black" /><polyline fill="none" points="182,71 155,95 159,109 160,114 162,124 162,118 159,104 155,90 159,79" stroke="black" /><polyline fill="none" points="192,65 209,66 226,70 235,77 224,78 240,87 241,83 247,90 269,101 271,113 278,120 273,135 265,142 236,173 220,195 229,205 250,211 281,229 286,233 276,223 243,211 235,207 225,200 226,190 252,148 270,138 278,124 273,114 271,107 275,109 270,104 265,96 245,87 235,77 230,71 224,67" stroke="black" /></svg>