<?xml version="1.0" encoding="utf-8" ?>
<svg baseProfile="tiny" height="500px" version="1.2" width="500px" xmlns="http://www.w3.org/2000/svg" xmlns:ev="http://www.w3.org/2001/xml-events" xmlns:xlink="http://www.w3.org/1999/xlink"><defs /><polyline fill="none" points="74,241 75,241" stroke="black" /><polyline fill="none" points="170,233 170,235 169,236 168,239 169,238 169,236 171,233 174,237 174,241 174,240 175,239 177,241 177,240 174,238 174,236 173,235 173,234 172,233" stroke="black" /><polyline fill="none" points="93,225 96,226 99,229 100,229 112,241 113,241 101,229" stroke="black" /><polyline fill="none" points="63,225 64,228 66,229 70,227 71,229 78,230 76,229 75,230 71,228 75,225 76,225 77,226 76,227 77,227 77,225 72,226 71,228 70,227 66,229" stroke="black" /><polyline fill="none" points="90,223 91,224 90,225 91,224 90,223 91,222 94,222 97,224 103,225 112,229 111,228 109,228 107,226 100,225 94,222 91,222" stroke="black" /><polyline fill="none" points="68,220 66,220 64,222 63,222 62,223 58,223 56,225 55,225 54,226 54,227 59,223 60,224 61,224 62,223 65,222 67,220" stroke="black" /><polyline fill="none" points="82,208 77,210 75,212 75,214 72,218 66,218 72,218 73,217 74,217 74,215 75,214 75,213 78,210 79,210" stroke="black" /><polyline fill="none" points="88,205" stroke="black" /><polyline fill="none" points="167,203 168,204 168,205 167,206 167,207 168,206 168,204" stroke="black" /><polyline fill="none" points="110,201 109,202 109,205 109,203 110,202" stroke="black" /><polyline fill="none" points="108,200" stroke="black" /><polyline fill="none" points="228,199 231,205 233,216 231,241 233,216 231,205" stroke="black" /><polyline fill="none" points="88,199" stroke="black" /><polyline fill="none" points="129,196 128,198 128,209 124,213 118,213 117,212 117,208 118,207 117,203 115,203 117,204 118,207 116,211 117,213 124,213 127,211" stroke="black" /><polyline fill="none" points="104,195" stroke="black" /><polyline fill="none" points="101,194 102,194 103,193 105,193 107,195 105,193 103,193 102,194" stroke="black" /><polyline fill="none" points="109,192 109,197" stroke="black" /><polyline fill="none" points="209,192 212,194 214,194 214,192 216,191 219,193 221,193 223,195 221,193 217,191 215,191 214,192 210,190 214,193 213,194" stroke="black" /><polyline fill="none" points="94,189 94,196 95,197 94,199 94,205 95,207 100,210 106,208 107,209 108,208 107,209 106,208 107,202 105,198 106,197 105,198 102,196 95,197 94,196" stroke="black" /><polyline fill="none" points="87,189 84,210 88,217 85,221 83,218 76,217 78,219 76,221 79,218 84,220 80,222 83,225 77,241 81,228 89,217 84,210 88,202 85,202" stroke="black" /><polyline fill="none" points="112,189 111,195 114,200 117,201 122,201 124,199 126,200 126,199 125,200 124,199 123,191 122,192 124,193 124,198 121,201 117,201 116,200 116,187" stroke="black" /><polyline fill="none" points="113,186" stroke="black" /><polyline fill="none" points="170,182 171,181 177,181 171,181" stroke="black" /><polyline fill="none" points="108,181 108,183" stroke="black" /><polyline fill="none" points="119,173 115,180 117,184 121,185 118,186 125,190 126,197 125,190 120,186 126,187 118,184 115,178 117,176 120,177 119,181 121,180 122,182 123,178 118,175 120,173 126,178 128,189 126,177" stroke="black" /><polyline fill="none" points="102,174 103,173 105,173 109,177 107,175 107,174 106,174 105,173 103,173" stroke="black" /><polyline fill="none" points="160,172" stroke="black" /><polyline fill="none" points="126,172 122,171 131,180 131,209 125,215 104,213 125,215 131,210 131,180" stroke="black" /><polyline fill="none" points="96,170 93,174 94,177 93,184 97,189 104,189 106,186 106,180 103,176 100,175 97,175 94,177 93,174 97,170" stroke="black" /><polyline fill="none" points="130,170 156,172 164,179 165,241 164,172 158,170 164,173 162,176 153,172 155,170" stroke="black" /><polyline fill="none" points="131,168 129,168 128,169 119,169 118,170 111,170 118,170 119,169 128,169 129,168" stroke="black" /><polyline fill="none" points="116,167 115,167 114,168 106,168 105,169 99,169 105,169 106,168 114,168 115,167" stroke="black" /><polyline fill="none" points="185,164 186,164" stroke="black" /><polyline fill="none" points="90,214 89,175 94,168 104,167 99,167 100,164 156,168 103,164 93,168 89,175" stroke="black" /><polyline fill="none" points="128,154" stroke="black" /><polyline fill="none" points="124,146 125,147 125,148 127,150 127,151 128,152 129,152 127,150 127,149 125,147 125,146" stroke="black" /><polyline fill="none" points="204,142 203,146 200,147 200,150 197,156 191,161 189,161 192,162 191,163 180,161 183,162 180,163 194,162 200,156" stroke="black" /><polyline fill="none" points="223,140 224,140 225,141 225,144 225,142 226,141 225,140" stroke="black" /><polyline fill="none" points="201,140 201,141" stroke="black" /><polyline fill="none" points="199,140 199,142 200,143 199,142" stroke="black" /><polyline fill="none" points="191,136 190,135 189,136 189,137 188,138 189,138" stroke="black" /><polyline fill="none" points="128,134 128,136" stroke="black" /><polyline fill="none" points="126,134 126,137 127,138 127,140 128,141 128,144 129,145 129,149 130,150 129,149 129,145 128,144 128,141 127,140 127,138 126,137" stroke="black" /><polyline fill="none" points="217,133 209,137 209,138 217,133 218,134 218,147 218,134" stroke="black" /><polyline fill="none" points="188,132 190,132 191,133 193,133 194,134 195,134 198,137 198,136 197,135 196,135 195,134 194,134 193,133 191,133 190,132" stroke="black" /><polyline fill="none" points="145,131 144,131 145,131 147,133 147,134 145,136 142,136 140,134 140,135 141,136 143,136 144,137 145,136 146,136 146,135 147,134 147,133" stroke="black" /><polyline fill="none" points="142,131 141,131 140,132 136,132 134,134 133,134 135,136 138,134 137,134 136,135 135,135 134,134 136,132 140,132 141,131" stroke="black" /><polyline fill="none" points="225,130 220,148 226,130 232,129 235,139 227,158 215,165 209,184 275,221 296,241 282,225 209,183 235,139 233,129" stroke="black" /><polyline fill="none" points="117,126 116,127" stroke="black" /><polyline fill="none" points="127,123 126,123 126,124 125,125 119,125 126,125 126,124" stroke="black" /><polyline fill="none" points="122,121 115,124 114,128 117,131 119,144 126,154 127,163 126,153 119,143 120,140 118,140 119,130 121,127 117,130 114,128 116,124" stroke="black" /><polyline fill="none" points="131,115 131,116 133,114 135,114 137,116 138,115 142,115 143,116 146,116 152,119 147,116 143,116 142,115 138,115 137,116 136,114 132,114" stroke="black" /><polyline fill="none" points="124,112 124,114" stroke="black" /><polyline fill="none" points="216,104 217,129 160,136 130,124 139,125 121,138 125,127 130,135 131,126 146,129 150,148 130,155 150,153 163,138 172,165 166,135 177,130 180,142 186,131 177,130 207,140 218,130" stroke="black" /><polyline fill="none" points="105,100 105,101 107,103 109,103 111,105 111,107 113,107 114,108 114,106 113,107 112,107 111,106 111,104 110,103 108,103" stroke="black" /><polyline fill="none" points="107,89" stroke="black" /><polyline fill="none" points="108,87 109,88 109,90 109,88" stroke="black" /><polyline fill="none" points="125,85 123,85 122,86 119,87 119,89 120,90 121,90 124,87 125,87 122,88 120,90 119,89 119,88 121,86 122,86 123,85" stroke="black" /><polyline fill="none" points="122,80 121,80 119,82 119,83" stroke="black" /><polyline fill="none" points="244,78 245,78 246,79 245,80 244,80 246,80 246,78" stroke="black" /><polyline fill="none" points="121,78 120,78 118,80 120,78" stroke="black" /><polyline fill="none" points="243,55 242,55 242,56 241,57 241,59 240,60 241,59 242,60 243,59 244,59 242,59 241,58 242,57 242,56" stroke="black" /><polyline fill="none" points="218,42 219,41 218,42 218,44 220,44 221,45 225,45 226,46 232,46 233,48 235,49 238,49 238,48 237,49 235,49 233,47 233,46 221,45 219,44" stroke="black" /><polyline fill="none" points="226,40 231,40 233,42 233,41 232,41 231,40" stroke="black" /><polyline fill="none" points="162,40 160,39 162,43 155,51 154,55 152,57 150,56 152,52 149,55 149,58 147,59 147,57 143,61 142,65 138,68 143,68 140,67 143,62 154,56 157,49 161,46" stroke="black" /><polyline fill="none" points="192,38 193,37 201,37 193,37" stroke="black" /><polyline fill="none" points="161,37 162,38 163,38 164,39 164,40 165,41 165,43 166,44 167,44 165,42 165,40 162,37" stroke="black" /><polyline fill="none" points="192,35 185,38 178,39 175,42 173,41 169,44 167,48 174,41 175,43 173,46 179,39 185,38" stroke="black" /><polyline fill="none" points="169,31 170,32 172,32 171,32 170,31" stroke="black" /><polyline fill="none" points="105,88 129,121 139,83 164,74 142,78 128,115 118,77 110,98 105,88 171,28 231,36 247,53 262,107 238,134 263,107 237,39 171,28" stroke="black" /></svg>