<?xml version="1.0" encoding="utf-8" ?>
<svg baseProfile="tiny" height="480px" version="1.2" width="640px" xmlns="http://www.w3.org/2000/svg" xmlns:ev="http://www.w3.org/2001/xml-events" xmlns:xlink="http://www.w3.org/1999/xlink"><defs /><polyline fill="none" points="195,203 194,213 200,221 194,235 201,228 204,227 204,235 203,241 209,241 204,235 204,228 207,225 213,223 219,224 229,225 220,225 214,224 205,223 195,215 194,205 200,199" stroke="black" /><polyline fill="none" points="141,189 130,191 123,192 129,192 136,191 131,200 111,202 99,193 103,198 125,202 134,197" stroke="black" /><polyline fill="none" points="113,154 109,159 99,160" stroke="black" /><polyline fill="none" points="137,138" stroke="black" /><polyline fill="none" points="130,133 135,162 132,159 131,143 131,148" stroke="black" /><polyline fill="none" points="105,134 93,132" stroke="black" /><polyline fill="none" points="134,130 154,129 170,137 171,150 161,164 169,160 177,150 176,161 180,142 187,145 184,157 175,174 160,204 163,202 179,171 184,151 187,138 180,148 177,140 171,139 167,133 176,128 155,128 145,127 139,128" stroke="black" /><polyline fill="none" points="74,126 69,144 71,156 70,155 67,151 72,153 75,157 70,151 69,138 71,143 71,137" stroke="black" /><polyline fill="none" points="80,122 89,123 112,134 111,152 110,131 82,121 87,121 81,123" stroke="black" /><polyline fill="none" points="101,105 95,110 82,119 70,120 79,120 93,118 88,118 87,115 95,112 98,108 104,108 99,108" stroke="black" /><polyline fill="none" points="212,102 214,119 207,129 201,133 205,130 214,109" stroke="black" /><polyline fill="none" points="192,85 206,106 209,111 202,101 200,91 198,89 192,87" stroke="black" /><polyline fill="none" points="161,120 153,109 137,105 138,94 138,101 134,105 131,109 119,114 116,111 114,108 140,109 142,115 138,119 142,115 155,115" stroke="black" /><polyline fill="none" points="57,82 50,87 46,89 39,99 45,107 58,110 55,114 52,108 47,108 40,101 55,83" stroke="black" /><polyline fill="none" points="263,63 258,63 250,69 242,93 241,105 242,111 247,133 248,139 245,142 216,144 195,154 191,167 197,173 190,190 194,195 204,197 218,196 205,196 198,197 191,191 190,182 195,175 207,171 201,171 191,166 191,160 200,150 243,144 249,139 266,140 250,140 247,128 242,106 241,94 242,88 254,66 265,66 265,93 267,104 283,140 289,147 317,193 311,186 283,140 279,135 267,99 265,66" stroke="black" /><polyline fill="none" points="167,53 179,61 182,66 198,83 201,86 187,75" stroke="black" /><polyline fill="none" points="55,50 50,50 38,57 27,69 24,86 32,99 50,118 59,129 62,146 64,166 65,181 76,206 81,212 87,217 31,238 83,212 76,206 73,202 65,167 64,152 62,139 37,108 29,95 24,77 38,59 43,53 68,56 60,59 56,72 71,59 61,56" stroke="black" /><polyline fill="none" points="66,51 77,52 97,48 119,45 145,43 154,43 169,44 188,61 211,89 212,96 212,91 206,83 184,56 177,51 162,44 148,43 135,43 109,45 86,48 70,52" stroke="black" /></svg>