<?xml version="1.0" encoding="utf-8" ?>
<svg baseProfile="tiny" height="480px" version="1.2" width="640px" xmlns="http://www.w3.org/2000/svg" xmlns:ev="http://www.w3.org/2001/xml-events" xmlns:xlink="http://www.w3.org/1999/xlink"><defs /><polyline fill="none" points="205.625,318.375 205.5,321.5 192.9375,331.875 186.9375,334.8125 177.0625,335.1875 170.375,340.625 178.0,335.1875 186.9375,335.6875 193.9375,331.875 205.25,322.75 206,319" stroke="black" /><polyline fill="none" points="116.625,236.625 130.4375,249.625 133.75,257.125 121.5,267.5 119.375,274.625 111.125,278.875 110.375,283.75 120.625,288.6875 126.375,302.1875 142.0,326.5 126.375,301.25 122.6875,290.875 110.0625,282.6875 115.9375,276.1875 130.875,273.125 121.25,274.8125 120.0,271.5 134.4375,257.8125 130.5625,248.75 115,234" stroke="black" /><polyline fill="none" points="184.0,233.625 187.0,247.25 193.6875,255.625 200.0625,258.8125 220.5,261.9375 236.0625,259.8125 264.625,244.375 265.0,242.3125 253.9375,250.875 233.375,260.625 221.125,262.0 205.1875,259.8125 195.0,255.8125 187.3125,247.125 184.0625,237.3125 185,232" stroke="black" /><polyline fill="none" points="156.0,228.75 171.8125,254.9375 188.0,297.625 172.875,305.125 167.8125,316.0 153.75,328.25 151.1875,334.4375 158.75,331.75 163.875,325.25 172.6875,330.0625 166.625,338.0 164.3125,335.9375 166.5,335.0 160.375,333.625 165.625,337.625 165.0,340.6875 171.9375,333.8125 172.625,324.625 166.9375,322.3125 152.625,335.0 151.0,333.625 167.625,317.3125 170.875,310.25 175.625,311.625 185.75,326.8125 191.9375,325.875 203.0,318.25 200.8125,311.0 194.0,302.375 187.625,302.375 175.375,308.0 174.0625,310.8125 171.1875,310.0625 174.375,304.75 187.9375,297.3125 170.9375,252.125 156,229" stroke="black" /><polyline fill="none" points="184.0,223.5 191.625,246.625 211.625,250.625 247.9375,248.8125 258.9375,243.875 271.625,233.375 263.0,240.8125 247.9375,248.8125 213.3125,250.8125 192.25,246.25 184,225" stroke="black" /><polyline fill="none" points="261.875,216.0 270.25,218.375 294.875,235.8125 333.9375,254.125 346.875,264.9375 353.8125,276.9375 366.9375,315.3125 370.0,338.5 365.8125,311.0 352.875,274.25 347.0625,264.125 334.9375,254.125 294.0,234.8125 265,216" stroke="black" /><polyline fill="none" points="183.875,206.25 173.25,205.75 183.125,206.125 185.9375,211.875 184.75,217.25 170.6875,222.875 159.6875,224.1875 154.375,216.375 144.625,182.75 137.9375,181.75 136.1875,194.5625 143.9375,233.8125 143.625,241.75 141.375,244.0 94.875,203.875 87.875,195.25 77.9375,193.125 57.75,193.625 60.125,197.0 71.1875,196.0625 84.4375,198.5 92.4375,216.0625 109.0,236.25 90.375,247.6875 74.75,269.625 67.6875,288.5 53.25,311.75 39.125,321.125 21.0,340.6875 39.25,321.75 53.625,311.8125 66.75,291.5 73.6875,272.375 90.5625,248.5 109.5625,237.875 109.1875,234.75 91.5625,213.6875 85.75,198.75 71.1875,196.0625 60.75,197.0 59.25,193.75 80.8125,193.1875 86.5625,195.125 94.25,204.25 141.75,244.0 143.8125,242.5 143.8125,232.5 136.0625,193.1875 138.625,181.75 142.375,181.5625 146.875,187.75 150.5625,204.6875 158.75,224.375 185.375,217.625 185,210" stroke="black" /><polyline fill="none" points="272.0,117.375 273.5625,119.3125 269.0625,125.8125 270.25,144.75 268.125,145.9375 266.375,143.375 265.25,126.1875 266.375,143.375 269.5,145.9375 272.75,135.25 269.1875,131.5 269.9375,123.625 274.375,119.375 278.75,123.875 273.8125,150.0 263.1875,160.9375 260.8125,171.0625 247.0,199.25 250.8125,203.1875 253.3125,213.125 272.375,231.0 275.0,228.125 272.0,222.5625 275.0,228.375 272.75,230.0 259.875,219.875 253.125,211.8125 250.8125,202.0 247.0,198.375 257.8125,179.0625 263.1875,162.0 271.4375,155.5 273.8125,150.0 279.0,126.375 277.625,120.625 273,118" stroke="black" /><polyline fill="none" points="166.625,118.375 164.0,128.625 167.375,141.1875 174.9375,147.8125 188.375,148.625 196.8125,142.8125 201.75,124.25 187.375,116.375 168,118" stroke="black" /><polyline fill="none" points="163.0,95.75 161.0,110.125 164.125,114.9375 178.0625,112.0625 188.875,113.1875 201.625,121.625 212.0,123.0 216.875,122.625 228.0625,116.1875 242.0,115.0625 259.6875,119.0625 264.0,122.375 260.25,127.5 257.8125,140.0625 251.875,148.3125 250.5,146.75 255.9375,133.5625 254.0625,123.4375 246.9375,119.1875 234.625,118.0625 225.9375,120.1875 218.25,125.25 223.0,144.375 221.75,146.25 218.1875,144.0 213.8125,131.125 209.625,129.375 205.375,131.75 198.375,146.625 191.125,151.625 181.625,153.0 174.0625,150.875 165.375,143.1875 158.0,119.375 163.1875,140.0625 173.0625,150.875 181.625,153.0 192.75,151.25 200.625,144.1875 205.5625,132.5625 209.625,129.375 214.0,133.375 218.625,145.25 228.375,154.625 237.625,156.0 246.0625,153.8125 255.875,144.9375 263.625,121.0 243.5,115.1875 235.0,115.0625 210.25,122.9375 202.9375,121.625 197.0,116.1875 188.875,113.1875 178.0625,112.0625 164.375,115.0 161.0,110.125 163.125,96.0625 177.75,91.75 164,94" stroke="black" /><polyline fill="none" points="227.875,27.125 225.0,34.375 230.375,26.375 250.8125,30.1875 264.9375,36.125 269.625,45.625 283.3125,52.375 290.625,59.75 291.9375,71.1875 288.625,90.375 276.375,106.75 274.0,115.0 276.125,108.0625 288.625,90.375 291.9375,71.1875 289.9375,58.125 283.9375,52.125 269.875,44.875 266.0625,36.1875 250.8125,30.1875 230,26" stroke="black" /><polyline fill="none" points="180.375,25.375 188.4375,28.4375 190.625,26.0 186.75,29.0 180.0625,25.3125 175.5625,29.875 164.25,29.75 159.125,35.0625 157.5,42.5 143.5625,51.5 137.0,75.5 144.25,100.875 153.8125,115.125 162.375,171.375 170.25,187.0625 179.625,196.375 170.1875,186.0 162.375,171.375 153.8125,115.125 143.1875,98.0 137.0,76.5 141.1875,57.0 145.625,49.375 155.9375,44.875 160.25,40.5 166.625,45.625 166.0,51.5 172.875,37.1875 193.6875,32.0 176.625,35.375 164.4375,44.875 158.4375,38.0625 161.375,32.6875 166.0,29.375 176.3125,29.9375 178,28" stroke="black" /><polyline fill="none" points="164,121 163,133 163,146 164,160 165,174 172,187 181,197 195,205 211,208 228,205 241,197 252,188 259,177 263,163 265,150 266,136 267,123" stroke="black" /><path d="M 170,108 L 175,102 L 184,101 L 193,104 L 200,109 Q 184.4,102 170,108" fill="none" stroke="black" /><polyline fill="none" points="170,108 175,102 184,101 193,104 200,109" stroke="black" /><path d="M 222,108 L 230,103 L 239,101 L 248,101 L 255,107 Q 238.8,102 222,108" fill="none" stroke="black" /><polyline fill="none" points="222,108 230,103 239,101 248,101 255,107" stroke="black" /><polyline fill="none" points="210,133 209,141 208,150 197,157 203,159 209,161 215,159 221,158" stroke="black" /><path d="M 175,124 C 177,123 180,122 183,121 C 186,121 189,122 192,123 C 195,124 198,125 201,126 C 198,127 195,128 192,129 C 189,128 186,127 183,127 C 180,126 177,125 175,124 " fill="none" stroke="black" /><polyline fill="none" points="190,125 188,127 186,125 188,123 190,125" stroke="black" /><polyline fill="none" points="180,125 185,123 191,124 197,126 191,128 185,127" stroke="black" /><polyline fill="none" points="190,125 188,127 186,125 188,123 190,125" stroke="black" /><path d="M 220,127 C 223,125 226,123 229,121 C 232,121 235,121 239,121 C 242,121 245,122 248,123 C 245,124 242,125 239,127 C 236,127 233,128 230,129 C 226,128 223,127 220,127 " fill="none" stroke="black" /><polyline fill="none" points="236,125 234,127 232,125 234,123 236,125" stroke="black" /><polyline fill="none" points="225,127 231,123 238,123 244,124 238,127 232,128" stroke="black" /><polyline fill="none" points="236,125 234,127 232,125 234,123 236,125" stroke="black" /><polyline fill="none" points="189,173 197,170 204,169 210,170 216,168 224,170 233,172 224,178 216,181 210,182 204,181 197,179 189,173" stroke="black" /><polyline fill="none" points="193,174 204,174 210,175 216,174 229,173 216,174 210,175 204,174 193,174" stroke="black" /><text fill="black" font-size="12" x="80.9" y="160">long3d</text><text fill="black" font-size="12" x="73.7" y="40">printing</text></svg>