<?xml version="1.0" encoding="utf-8" ?>
<svg baseProfile="tiny" height="480px" version="1.2" width="640px" xmlns="http://www.w3.org/2000/svg" xmlns:ev="http://www.w3.org/2001/xml-events" xmlns:xlink="http://www.w3.org/1999/xlink"><defs /><polyline fill="none" points="139,232 143,232" stroke="black" /><polyline fill="none" points="132,230 133,230" stroke="black" /><polyline fill="none" points="130,229" stroke="black" /><polyline fill="none" points="77,229 75,231 75,232 74,233 74,234 73,235 74,236 74,234 75,233 75,232 77,230" stroke="black" /><polyline fill="none" points="127,228 126,229 127,230 127,232 129,235 129,241 129,235 128,234 128,232 126,229" stroke="black" /><polyline fill="none" points="245,227 244,228 244,229 243,230 243,231 242,232 242,233 240,236 240,238 238,240 238,241 239,240 239,239 241,236 241,234 242,233 242,232 244,230" stroke="black" /><polyline fill="none" points="125,226" stroke="black" /><polyline fill="none" points="128,221 126,223" stroke="black" /><polyline fill="none" points="179,220 175,224 176,225 174,228 174,230 171,235 171,237 169,241 172,235 172,233 175,228 175,226 179,221" stroke="black" /><polyline fill="none" points="83,220 84,221 81,224 82,225 81,226 82,227 80,230 79,239 79,235 80,233 82,232 81,230 82,229 81,228 82,227 81,226 82,225 82,223 84,222" stroke="black" /><polyline fill="none" points="84,218" stroke="black" /><polyline fill="none" points="89,216 88,216 88,219 87,220 87,225 86,226 86,231 85,232 85,241 85,232 86,231 87,220" stroke="black" /><polyline fill="none" points="129,208" stroke="black" /><polyline fill="none" points="306,204 304,203 305,202 303,204 290,206 289,205 293,202 292,204 280,207 289,205 289,207 277,210 287,210 284,209 291,206 304,203" stroke="black" /><polyline fill="none" points="100,197" stroke="black" /><polyline fill="none" points="126,195 126,199 125,200 125,201 124,202 124,204 123,205 122,205 123,206 124,205 124,203 125,202 125,201 126,200" stroke="black" /><polyline fill="none" points="122,191 120,191 119,192 108,192 104,195 109,192 119,192 120,191 121,191 122,192" stroke="black" /><polyline fill="none" points="130,185 131,202 122,215 136,192 129,227 171,225 153,230 128,225 139,190 149,209 140,208 149,219 165,223 178,218 156,220 142,191" stroke="black" /><polyline fill="none" points="264,173 258,188 252,198 252,201 248,210" stroke="black" /><polyline fill="none" points="298,165 299,167 299,173 300,174 300,180 299,181 298,180 298,177 298,180 299,181 300,180 301,181 301,185 301,180 300,179 300,174 299,173 299,166" stroke="black" /><polyline fill="none" points="216,158 216,159 215,160 216,161 215,162 215,166 214,167 214,171 213,172 213,173 213,172 214,171 214,168 215,167 215,162 216,161 215,160 216,159" stroke="black" /><polyline fill="none" points="127,154 128,155 128,157 129,158 129,157 128,156 129,155 131,155 132,154 133,155 133,156 137,156 134,156 133,155 133,154 131,154 130,155 129,155 128,154" stroke="black" /><polyline fill="none" points="126,151 154,156 157,159 159,158 157,159 151,154 158,152 169,154 171,156 166,161 174,155 162,154 156,150 158,152 156,154 140,154 131,151 133,148" stroke="black" /><polyline fill="none" points="225,147 226,147" stroke="black" /><polyline fill="none" points="222,144 221,144 220,145 220,148 217,153 217,155 218,156 217,155 217,154 218,153 218,152 220,150 220,148 221,147 223,147 221,147 220,146 220,145 221,144 222,145 223,145" stroke="black" /><polyline fill="none" points="261,143 253,143 242,150 237,149 244,145 238,145 244,145 234,150 235,152 230,152 224,160 228,154 231,155 240,150 236,155 254,143" stroke="black" /><polyline fill="none" points="238,142 244,142 245,143 244,142" stroke="black" /><polyline fill="none" points="271,141 278,141 284,144 288,150 297,158 298,163 299,163 297,157 288,149 289,148 285,144 278,141" stroke="black" /><polyline fill="none" points="152,129 153,129 154,130 157,130 155,130 154,129" stroke="black" /><polyline fill="none" points="147,127 148,126 150,126 151,127 152,126 153,126 154,127 155,127 156,128 157,128 156,127 154,127 153,126 148,126" stroke="black" /><polyline fill="none" points="130,125 130,127 131,128 134,128 135,127 134,126 133,126 132,125" stroke="black" /><polyline fill="none" points="170,119 171,120" stroke="black" /><polyline fill="none" points="237,115 237,117 239,119 239,118 237,116" stroke="black" /><polyline fill="none" points="104,110 105,111" stroke="black" /><polyline fill="none" points="245,106 245,107 241,111 240,110 235,110 233,112 233,114 232,115 233,114 233,113 236,110 238,110 239,111 240,110 241,111 241,112 244,109" stroke="black" /><polyline fill="none" points="160,106 160,107 161,108 161,109 162,110 162,111 162,110 161,109 161,108 160,107" stroke="black" /><polyline fill="none" points="158,106 158,107" stroke="black" /><polyline fill="none" points="92,95 93,97 103,107 103,108 103,106 101,104 102,103 102,98 101,97 102,99 102,103 101,104" stroke="black" /><polyline fill="none" points="160,94 160,95 164,102 164,111 164,102 163,101 163,99" stroke="black" /><polyline fill="none" points="158,94 158,101 157,102 157,104 157,102 158,101 159,102 159,104 159,102 158,101" stroke="black" /><polyline fill="none" points="245,88 244,89 244,91 243,92 244,92 244,90 246,88 249,88 250,89 250,95 250,91 251,90 252,91 253,90 253,89 252,90 251,90 250,89 250,88 249,88 248,87 247,88" stroke="black" /><polyline fill="none" points="211,87 211,89 216,89 216,88 215,89 212,89 211,88 212,87 213,87" stroke="black" /><polyline fill="none" points="112,85 114,87 114,88 115,89 116,89" stroke="black" /><polyline fill="none" points="249,85 244,84 238,86 238,90 236,93 236,99 234,105 235,107 234,105 235,104 235,100 236,99 237,100 236,99 236,93 238,90 238,87 240,85 246,84 247,85 246,86" stroke="black" /><polyline fill="none" points="174,86 175,87 176,91 179,93 183,93 185,91 186,92 188,92 189,91 193,90 191,87 189,87 187,85 185,85 184,84 185,83 184,84 183,83 176,83 176,84" stroke="black" /><polyline fill="none" points="108,83 110,84 112,82 110,84 108,83 114,78 120,78 125,80 125,85 120,88 115,81 114,84 116,84 119,88 132,85 129,81 132,84 126,87 126,81 120,78 113,78" stroke="black" /><polyline fill="none" points="149,93 164,122 192,129 218,92 234,89 231,113 232,79 161,80 224,85 192,129 172,125 205,118 204,85 175,79 155,91 175,79 207,89 208,112 189,127 159,109 165,122" stroke="black" /><polyline fill="none" points="80,73 83,73" stroke="black" /><polyline fill="none" points="91,71 88,91 97,109 115,117 133,108 111,119 102,115 127,117 155,85 106,68 142,84 128,112 109,116 91,100 90,76 104,70 130,79" stroke="black" /><polyline fill="none" points="279,63 272,70 270,75 264,81 260,83 257,83 252,87 256,84 266,80 271,75 270,74 271,72 276,68" stroke="black" /><polyline fill="none" points="101,62 99,62 99,63 100,64 101,63" stroke="black" /><polyline fill="none" points="85,62 88,65 88,66 89,66 90,67 89,68 88,68 90,68 90,67 88,65 88,64 86,62" stroke="black" /><polyline fill="none" points="59,48 59,49 58,50 58,52 64,59 66,59 66,58 65,59 61,55 61,54 58,51 59,50" stroke="black" /><polyline fill="none" points="92,7 91,7 90,6 89,7 89,8 88,9 87,12 85,14 85,15 82,17 85,16 85,15 87,13 87,12 88,11 89,8 90,7" stroke="black" /><polyline fill="none" points="313,0 284,63 255,89 225,144 294,138 319,151 294,138 224,138 283,65" stroke="black" /><polyline fill="none" points="73,0 61,46 84,67 84,92 125,180 91,202 67,241 99,195 129,183 84,92 85,67 61,46" stroke="black" /><polyline fill="none" points="67,0 67,2 68,3 68,2 67,1" stroke="black" /></svg>