<?xml version="1.0" encoding="utf-8" ?>
<svg baseProfile="tiny" height="500px" version="1.2" width="500px" xmlns="http://www.w3.org/2000/svg" xmlns:ev="http://www.w3.org/2001/xml-events" xmlns:xlink="http://www.w3.org/1999/xlink"><defs /><polyline fill="none" points="180,217 180,220" stroke="black" /><polyline fill="none" points="244,201 243,211 242,212 243,228 242,212 243,211" stroke="black" /><polyline fill="none" points="191,176 192,176 193,177 196,177 197,178 202,178 197,178 196,177 194,177 193,176" stroke="black" /><polyline fill="none" points="187,172 187,173 189,172 191,174 193,173 199,176 204,176 205,177 204,178 205,178 205,176 199,176 196,174" stroke="black" /><polyline fill="none" points="179,162 184,174 180,162 185,169 200,173 220,170 211,178 209,175 214,178 221,173 221,170 211,173 210,169 216,168 191,165 190,168 192,165 209,167 207,172 192,171 183,166 189,164" stroke="black" /><polyline fill="none" points="234,147" stroke="black" /><polyline fill="none" points="229,147" stroke="black" /><polyline fill="none" points="238,146" stroke="black" /><polyline fill="none" points="226,146" stroke="black" /><polyline fill="none" points="211,135 212,136 213,139 217,143 219,143 224,146 224,145 222,145 221,144 218,143 213,138 213,137" stroke="black" /><polyline fill="none" points="156,126" stroke="black" /><polyline fill="none" points="227,121 227,122 228,121 229,121 230,122 231,122 231,121 230,122 229,121" stroke="black" /><polyline fill="none" points="251,119" stroke="black" /><polyline fill="none" points="220,120 221,121 221,122 223,122 225,119 232,119 233,120 233,123 233,121 234,120 236,120 236,119 235,120 234,120 233,119 225,119 224,120" stroke="black" /><polyline fill="none" points="248,118 251,122 250,133 247,139 240,145 248,138 250,133 251,121 250,121" stroke="black" /><polyline fill="none" points="209,117" stroke="black" /><polyline fill="none" points="186,117 189,117" stroke="black" /><polyline fill="none" points="212,116 208,121 208,128 208,122 209,121 210,122 211,131 210,132 209,131 210,133 211,131 212,133 210,128 210,123 211,122 214,129 214,135 212,121 211,122 209,121" stroke="black" /><polyline fill="none" points="253,115 254,115" stroke="black" /><polyline fill="none" points="205,115 208,138 231,150 265,119 275,146 273,123 284,122 245,189 250,241 248,187 319,225 248,186 275,154 283,120 268,139 268,120 231,150 211,140" stroke="black" /><polyline fill="none" points="170,113 170,116 172,116 173,115 175,116 174,115 172,116 170,115 171,113 174,113 175,112 177,113 177,116 177,114 178,113 180,116 184,116 180,115 179,114 180,113 182,113 180,113 179,112 178,113 176,112 174,113" stroke="black" /><polyline fill="none" points="207,113 207,116 220,110 236,110 255,117 253,123 260,116 251,117 229,109 217,111 219,108 230,107 251,114 230,107" stroke="black" /><polyline fill="none" points="157,102 153,102 153,103 154,104 153,105 153,119 153,105 154,104 156,104 157,103" stroke="black" /><polyline fill="none" points="178,98 180,98 181,99 182,99 181,99 180,98" stroke="black" /><polyline fill="none" points="226,96 227,97 230,97 231,98 233,98 231,98 230,97 227,97" stroke="black" /><polyline fill="none" points="155,94 155,96 156,97 156,96 155,95" stroke="black" /><polyline fill="none" points="173,90 174,91 182,91 183,92 187,92 188,93 189,93 192,96 191,95 191,94 188,92 183,92 182,91 174,91" stroke="black" /><polyline fill="none" points="156,87 156,88 159,91 159,92 160,93 160,94 161,95 160,96 160,97 161,96 161,94 160,93 160,92 159,91 159,90 158,90 157,89 157,88" stroke="black" /><polyline fill="none" points="151,86 154,148 168,186 125,198 93,241 126,198 168,187 179,203 177,241 179,203 154,147" stroke="black" /><polyline fill="none" points="263,79 266,81 268,86 267,88 269,90 269,105 267,109 269,111 261,118 269,112 267,109 269,105 269,90 266,80" stroke="black" /><polyline fill="none" points="302,57 303,62 306,64 304,62 305,59 304,62 302,58 310,58 309,62 307,60 313,68 310,70 309,67 310,70 307,72 303,70 307,69 302,69 301,66 301,69 304,72 311,71 314,68 316,61 307,57" stroke="black" /><polyline fill="none" points="190,51 164,99 180,101 161,102 156,112 169,136 157,129 173,139 187,136 203,114 185,137 173,139 159,127 161,106 174,101 192,112 190,128 175,136 193,119 180,101 204,112 164,98" stroke="black" /><polyline fill="none" points="318,48 319,49 317,51 315,51 315,54 313,56 318,60 318,63 319,64 318,68 314,73 318,69 319,66 318,60 313,56 316,55 315,52 319,49" stroke="black" /><polyline fill="none" points="302,45 303,48 302,54 303,52 309,53 303,51 304,48 310,50 302,46 306,44 310,45 313,49 310,55 306,55 312,54 313,49 311,45 309,44" stroke="black" /><polyline fill="none" points="303,38 306,38 311,43 313,43 314,45 316,45 317,44 316,43 315,38 312,36 312,37 316,40 315,41 316,42 316,44 315,45 314,43 312,43 308,40 309,38 308,40 307,38" stroke="black" /><polyline fill="none" points="297,38 299,39 298,40 299,39 300,40 306,41 301,40 300,39 300,36 301,35 308,35 310,36 309,35 301,35 299,36 300,37 299,39" stroke="black" /><polyline fill="none" points="303,27 304,28 305,27 306,27 305,27 304,28" stroke="black" /><polyline fill="none" points="173,30 176,30 176,29 179,27 185,27 186,28 190,28 186,28 185,27 179,27 178,28 176,28 176,29 175,30 174,30 173,29" stroke="black" /><polyline fill="none" points="297,24 297,25 298,26 298,27 301,29 300,30 298,30 297,31 296,31 298,31 299,30 302,30 301,29 301,28 300,28 297,25" stroke="black" /><polyline fill="none" points="294,23 288,27 285,28 283,27 286,29 284,32 288,32 290,30 294,29 295,26 292,30 290,30 287,32 284,31 287,29 285,28 286,27 289,28 288,27 290,25 294,24" stroke="black" /><polyline fill="none" points="274,23 277,23 281,27 281,28 281,27 280,26 280,25 279,24 278,24 277,23" stroke="black" /><polyline fill="none" points="178,21 179,22 181,22 182,23 186,23 183,23 182,22 180,22 179,21" stroke="black" /><polyline fill="none" points="299,20" stroke="black" /><polyline fill="none" points="248,23 249,24 256,24 257,23 259,23 260,22 263,21 262,21 261,22 259,22 256,24 250,24 249,23 249,20 248,20 249,21 249,22" stroke="black" /><polyline fill="none" points="236,19 236,20 235,21 235,22 231,26 232,26 235,23 235,22 237,20" stroke="black" /><polyline fill="none" points="174,13 174,22 173,23 173,25 174,26 176,23 176,21 176,23 175,24 174,23 174,19 177,17 179,18 178,19 181,18 179,18 178,17 175,18 174,17" stroke="black" /><polyline fill="none" points="211,10 211,11 212,11 213,12 214,12 215,13 217,13 219,15 220,14 219,14 218,13 215,13 213,11 212,11" stroke="black" /><polyline fill="none" points="174,7 173,8 174,9 174,11 174,9 173,8" stroke="black" /><polyline fill="none" points="249,5 249,14" stroke="black" /><polyline fill="none" points="251,4 251,14" stroke="black" /><polyline fill="none" points="168,4 168,5 167,6 166,6 165,5 165,4 165,5 164,6 164,8 164,7 165,6 168,6" stroke="black" /><polyline fill="none" points="244,3" stroke="black" /><polyline fill="none" points="242,3 242,4 241,5 241,6 241,5 242,4" stroke="black" /><polyline fill="none" points="284,1 293,1 294,10 298,18 296,20 297,22 305,23 319,35 306,23 298,22 296,20 299,18 297,17 293,5 297,1" stroke="black" /><polyline fill="none" points="207,0 207,2 211,3 231,1 263,2 231,1 211,3" stroke="black" /><polyline fill="none" points="181,1 181,2 184,2 186,4 193,4 194,3 202,3 203,4 206,4 203,4 202,3 187,4 184,1 184,0 183,2" stroke="black" /><polyline fill="none" points="166,0 161,5 160,11 163,20 164,33 166,38 170,42 164,33 163,20 160,11 161,6" stroke="black" /></svg>