<?xml version="1.0" encoding="utf-8" ?>
<svg baseProfile="tiny" height="480px" version="1.2" width="640px" xmlns="http://www.w3.org/2000/svg" xmlns:ev="http://www.w3.org/2001/xml-events" xmlns:xlink="http://www.w3.org/1999/xlink"><defs /><polyline fill="none" points="161,228 168,235 168,234 162,228" stroke="black" /><polyline fill="none" points="133,180 106,180 123,180 107,182 100,183 94,184 104,181 81,181 75,180 78,182 93,183 99,184 106,183 124,182" stroke="black" /><polyline fill="none" points="84,155" stroke="black" /><polyline fill="none" points="95,126 97,125 106,129 118,151 111,143" stroke="black" /><polyline fill="none" points="92,121 96,121" stroke="black" /><polyline fill="none" points="88,126 76,121 69,122" stroke="black" /><polyline fill="none" points="210,115 190,126 193,123" stroke="black" /><polyline fill="none" points="73,110 89,120 90,130 90,123 86,117 56,110 52,115 45,134 55,150 71,153 85,146 80,150 82,145 77,150 62,153 53,147 51,141 53,139 48,139 45,122 58,116" stroke="black" /><polyline fill="none" points="164,114 130,107 108,118 102,118 96,117 85,112 69,108 74,108 101,117 109,118 115,112 141,107" stroke="black" /><polyline fill="none" points="142,101 147,106 143,101" stroke="black" /><polyline fill="none" points="47,97" stroke="black" /><polyline fill="none" points="55,90" stroke="black" /><polyline fill="none" points="94,90 80,86 59,99 63,108 57,108 59,92 69,87 86,86" stroke="black" /><polyline fill="none" points="185,78 192,89 195,94" stroke="black" /><polyline fill="none" points="55,77" stroke="black" /><polyline fill="none" points="44,75 40,78 42,83" stroke="black" /><polyline fill="none" points="199,74 205,90 199,87 203,96 210,99 207,120 203,124 200,123 185,128 178,137 174,132 173,126 170,123 176,121 159,130 156,123 131,109 110,120 109,132 109,127 118,147 132,153 139,153 153,146 159,123 163,117 173,127 174,138 176,158 184,156 187,143 187,152 183,156 181,149 181,143 178,140 184,129 192,143 181,168 157,223 162,234 159,230 157,215 178,169 185,165 192,131 204,123 208,120 217,120 200,84" stroke="black" /><polyline fill="none" points="120,63 120,69 120,74 123,77 114,96 118,101 114,96 121,96 130,95 122,95" stroke="black" /><polyline fill="none" points="193,62 195,83" stroke="black" /><polyline fill="none" points="22,45 23,56 33,79 31,89 22,103 31,105 28,117 49,148 51,178 52,184 67,211 76,221 81,225 74,229 67,230 58,237 63,233 73,230 79,229 76,240 80,237 81,225 67,211 62,205 52,179 51,151 46,144 49,111 42,111 28,111 32,115 23,111 34,108 38,93 34,87 29,74 28,53 32,59 36,53 36,58 23,50" stroke="black" /><polyline fill="none" points="76,44 72,40 66,41 60,45 72,44 67,44 73,41" stroke="black" /><polyline fill="none" points="68,48 50,62 54,59 56,41 47,49 34,67 59,71 65,71" stroke="black" /><polyline fill="none" points="58,42 74,54 71,60 73,63 75,68 77,72 80,64 77,52 84,43 93,39 99,52 99,46 104,41 109,37 86,39 73,36 63,35" stroke="black" /><polyline fill="none" points="168,30 179,35 212,69 208,68 209,66 203,45 174,35" stroke="black" /><polyline fill="none" points="111,26 111,27" stroke="black" /><polyline fill="none" points="122,23 127,25 126,33 134,40 136,63 140,62 165,73 153,69 161,58 154,61 142,60 142,55 140,51 141,45 151,45 157,48 170,53 164,53 175,42 191,62 194,52 177,40 162,39 156,41 171,46 142,41 129,34 124,30 127,27 133,31 138,32 141,39 141,33 136,29" stroke="black" /><polyline fill="none" points="66,25 69,21 72,17 74,15 69,19" stroke="black" /><polyline fill="none" points="148,11" stroke="black" /><polyline fill="none" points="119,5 114,11 108,14 112,11" stroke="black" /></svg>