<?xml version="1.0" encoding="utf-8" ?>
<svg baseProfile="tiny" height="480px" version="1.2" width="640px" xmlns="http://www.w3.org/2000/svg" xmlns:ev="http://www.w3.org/2001/xml-events" xmlns:xlink="http://www.w3.org/1999/xlink"><defs /><polyline fill="none" points="280.0,308.75 268.5,325.3125 253.25,340.0 254.9375,340.75 260.9375,334.8125 280.375,310.375 284.0,340.5 280,309" stroke="black" /><polyline fill="none" points="153.625,290.375 108.0,295.1875 91.0,302.1875 82.875,309.125 75.0625,318.125 68.0,339.5 70.1875,328.9375 76.0,317.375 92.0,302.1875 116.1875,293.1875 153,291" stroke="black" /><polyline fill="none" points="171.0,290.0 172.1875,304.9375 176.8125,317.375 176.0625,327.875 185.625,340.375 176.0625,327.875 176.8125,317.375 171,300" stroke="black" /><polyline fill="none" points="288.0,282.75 292.8125,292.75 288.0,283.625 291.75,280.0 305.8125,286.875 303.375,290.0 295.875,286.8125 302.3125,289.9375 306.75,288.75 304.8125,283.0625 289,281" stroke="black" /><polyline fill="none" points="276.25,203.75 275.0625,209.9375 276.9375,216.25 299.6875,276.125 304.0,280.375 296.75,269.375 275.125,210.25 276.125,204.875 283.1875,202.1875 290.8125,209.1875 299.75,224.5 317.75,260.0 323.75,278.9375 329.625,284.6875 332.8125,282.75 333.9375,276.5 333.1875,200.125 335.125,195.1875 341.125,192.0 348.9375,197.125 358.1875,279.6875 371.1875,327.25 380.0,340.4375 371.125,326.6875 358.1875,279.6875 351.75,209.875 348.4375,195.5625 340.0,192.1875 335.3125,194.75 333.1875,200.125 334.0,272.875 332.5,281.875 329.625,285.0 323.625,278.25 317.4375,258.4375 291.8125,209.9375 285.9375,203.3125 279,203" stroke="black" /><polyline fill="none" points="137.375,163.375 138.375,173.375 143.125,182.9375 155.9375,193.8125 165.5,195.9375 180.8125,190.9375 186.8125,184.8125 194.375,166.6875 198.5,165.0 200.8125,165.875 207.5625,182.0 216.625,192.625 231.625,196.0 243.9375,192.875 251.6875,186.125 258.75,162.0625 254.625,180.25 249.75,187.25 241.0625,193.8125 231.375,196.0 218.0,192.8125 207.5,181.125 200.8125,164.3125 194.375,165.625 187.0,183.625 180.375,190.625 164.125,196.0 153.0625,191.875 144.375,184.1875 138.375,172.375 137,162" stroke="black" /><polyline fill="none" points="209.0,163.5 208.25,167.125 217.25,188.75 226.4375,191.8125 235.5625,191.8125 244.9375,187.875 248.875,182.9375 252.9375,170.375 250.25,156.875 257.375,156.375 261.625,161.5625 263.0625,187.625 268.6875,187.8125 266.0,163.875 269.6875,159.0 266.125,162.0 268.625,186.0 265.625,189.0 262.0625,184.3125 261.625,160.0 258.0,156.375 239.25,152.1875 225.75,152.1875 216.0625,155.125 211,160" stroke="black" /><polyline fill="none" points="141.375,137.625 146.375,131.0 154.625,133.625 151.25,137.0 152.8125,137.75 154.75,133.875 146.25,131.0 143.125,132.875 141.0,138.375 142.125,149.5625 175.9375,149.1875 190.25,158.25 190.1875,163.6875 193.0625,158.3125 206.625,161.0 205.375,158.625 210.0,155.1875 222.625,149.375 241.9375,149.1875 259.75,152.0 224.0625,149.1875 213.9375,152.1875 205.0625,158.25 191.375,159.0 185.0625,153.25 175.3125,149.0625 141.625,149.625 141,139" stroke="black" /><polyline fill="none" points="289.0,128.375 270.3125,154.5625 262.5,151.5 257.3125,140.3125 259.0,143.625 256.25,146.0 259.25,144.6875 263.1875,152.9375 276.625,160.625 275.8125,171.5625 271.8125,194.0 267.125,200.875 259.75,205.875 253.875,228.75 245.375,242.0 245.0625,251.375 247.375,263.4375 251.9375,268.875 282.0625,285.25 290.625,296.8125 298.875,294.0625 305.0625,295.25 308.375,299.3125 302.25,303.75 305.3125,303.5625 309.0,298.625 306.9375,296.125 299.625,294.0 291.1875,296.8125 283.0,285.1875 253.75,269.5625 247.4375,262.6875 245.0625,251.375 245.375,243.625 253.875,228.8125 259.25,207.5 268.625,200.375 271.8125,194.0 277.75,160.8125 271.0,154.375 290,128" stroke="black" /><polyline fill="none" points="288.625,86.375 284.25,87.1875 282.375,90.375 289.0,96.375 294.75,114.125 289.5,125.375 282.0,123.625 288.625,120.0 281.375,124.625 290.3125,125.625 294.75,114.125 289.0,95.75 283.75,89.0 289,87" stroke="black" /><polyline fill="none" points="264.0,58.375 265.1875,61.875 284.75,75.75 289.75,83.75 285.375,75.375 264,59" stroke="black" /><polyline fill="none" points="179.625,49.625 173.3125,44.3125 180.0,51.125 176.375,55.0 161.5,48.0625 152.4375,49.875 149.0625,46.25 150.9375,49.875 142.375,60.625 131.5,60.0 143.0,60.625 149.9375,51.25 159.75,48.0 175.25,54.875 180,54" stroke="black" /><polyline fill="none" points="237.5,38.75 246.75,44.75 250.75,50.625 261.3125,54.5 252.1875,51.0 239.75,39.375 223.0,35.375 213.625,35.375 201.25,42.0 188.25,31.625 182.9375,30.1875 158.25,32.125 147.6875,41.125 139.5,40.375 139.5625,46.125 113.9375,72.6875 109.1875,84.0 105.0625,106.625 106.375,120.75 114.375,129.75 118.0,141.625 134.0,159.75 132.0,167.75 133.125,174.3125 147.375,229.625 168.625,255.5625 171.0,274.25 168.875,282.5 171.0,274.25 168.0,253.75 148.25,230.5 137.25,194.75 132.0,168.25 136.0,159.375 118.25,141.0625 114.375,128.75 106.1875,119.3125 105.0625,106.625 109.1875,84.0 113.75,74.0625 133.375,52.625 140.125,46.625 146.75,47.75 139.625,45.625 139.375,40.625 148.75,41.625 160.875,31.5625 183.375,30.375 200.1875,41.9375 206.6875,40.875 214.125,35.1875 232,38" stroke="black" /><polyline fill="none" points="141,165 141,181 142,197 144,213 149,227 159,239 172,248 187,256 205,258 222,254 236,244 248,233 257,220 262,205 264,190 266,175 266,159" stroke="black" /><path d="M 148,150 L 156,141 L 166,138 L 177,139 L 188,143 Q 167.0,139 148,150" fill="none" stroke="black" /><polyline fill="none" points="148,150 156,141 166,138 177,139 188,143" stroke="black" /><path d="M 210,142 L 221,138 L 232,137 L 243,141 L 250,149 Q 231.2,138 210,142" fill="none" stroke="black" /><polyline fill="none" points="210,142 221,138 232,137 243,141 250,149" stroke="black" /><polyline fill="none" points="200,168 200,177 201,188 190,198 195,199 201,201 207,199 213,197" stroke="black" /><path d="M 156,162 C 159,160 163,158 167,157 C 170,157 173,157 177,157 C 180,158 184,160 188,162 C 184,163 180,164 177,165 C 173,165 170,165 167,165 C 163,164 159,163 156,162 " fill="none" stroke="black" /><polyline fill="none" points="174,161 172,163 170,161 172,159 174,161" stroke="black" /><polyline fill="none" points="162,162 169,159 176,159 183,162 176,164 169,164" stroke="black" /><polyline fill="none" points="174,161 172,163 170,161 172,159 174,161" stroke="black" /><path d="M 210,161 C 213,159 217,157 221,156 C 225,156 229,157 233,158 C 236,159 239,160 242,161 C 239,162 236,163 233,164 C 229,164 225,164 221,164 C 217,163 213,162 210,161 " fill="none" stroke="black" /><polyline fill="none" points="228,160 226,162 224,160 226,158 228,160" stroke="black" /><polyline fill="none" points="216,161 223,158 231,159 237,161 231,163 223,163" stroke="black" /><polyline fill="none" points="228,160 226,162 224,160 226,158 228,160" stroke="black" /><polyline fill="none" points="177,220 187,216 195,214 201,215 207,213 215,215 225,218 216,226 208,228 201,229 195,229 187,227 177,220" stroke="black" /><polyline fill="none" points="181,220 195,219 201,219 208,218 221,219 207,220 201,221 195,221 181,220" stroke="black" /><text fill="black" font-size="12" x="62.900000000000006" y="160">longthinhle</text><text fill="black" font-size="12" x="91.7" y="40">uts</text></svg>